<mxfile host="app.diagrams.net" agent="Mozilla/5.0 (X11; Linux x86_64) AppleWebKit/537.36 (KHTML, like Gecko) Chrome/131.0.0.0 Safari/537.36" version="25.0.3">
  <diagram name="Страница — 1" id="0fN1kpyqR_RBQpPmUwyD">
    <mxGraphModel dx="1657" dy="2194" grid="1" gridSize="10" guides="1" tooltips="1" connect="1" arrows="1" fold="1" page="1" pageScale="1" pageWidth="3300" pageHeight="2339" math="0" shadow="0">
      <root>
        <mxCell id="0" />
        <mxCell id="1" parent="0" />
        <mxCell id="wsURAHMhbF8bhhn0U9RA-9" style="edgeStyle=orthogonalEdgeStyle;rounded=0;orthogonalLoop=1;jettySize=auto;html=1;exitX=0.5;exitY=1;exitDx=0;exitDy=0;entryX=0.5;entryY=0;entryDx=0;entryDy=0;" edge="1" parent="1" source="wsURAHMhbF8bhhn0U9RA-3" target="wsURAHMhbF8bhhn0U9RA-4">
          <mxGeometry relative="1" as="geometry" />
        </mxCell>
        <mxCell id="wsURAHMhbF8bhhn0U9RA-3" value="&lt;font style=&quot;font-size: 14px;&quot; face=&quot;Lucida Console&quot;&gt;int compare_structs_id(Data strct1, Data strct2)&lt;/font&gt;" style="rounded=1;whiteSpace=wrap;html=1;arcSize=50;" vertex="1" parent="1">
          <mxGeometry x="40" y="40" width="200" height="100" as="geometry" />
        </mxCell>
        <mxCell id="wsURAHMhbF8bhhn0U9RA-10" style="edgeStyle=orthogonalEdgeStyle;rounded=0;orthogonalLoop=1;jettySize=auto;html=1;exitX=1;exitY=0.5;exitDx=0;exitDy=0;entryX=0;entryY=0.5;entryDx=0;entryDy=0;endArrow=none;endFill=0;" edge="1" parent="1" source="wsURAHMhbF8bhhn0U9RA-4" target="wsURAHMhbF8bhhn0U9RA-5">
          <mxGeometry relative="1" as="geometry" />
        </mxCell>
        <mxCell id="wsURAHMhbF8bhhn0U9RA-11" style="edgeStyle=orthogonalEdgeStyle;rounded=0;orthogonalLoop=1;jettySize=auto;html=1;exitX=0.5;exitY=1;exitDx=0;exitDy=0;entryX=0.5;entryY=0;entryDx=0;entryDy=0;endArrow=none;endFill=0;" edge="1" parent="1" source="wsURAHMhbF8bhhn0U9RA-4" target="wsURAHMhbF8bhhn0U9RA-6">
          <mxGeometry relative="1" as="geometry" />
        </mxCell>
        <mxCell id="wsURAHMhbF8bhhn0U9RA-4" value="&lt;font style=&quot;font-size: 13px;&quot; face=&quot;Lucida Console&quot;&gt;strct1.id &amp;lt; strct2.id&lt;/font&gt;" style="rhombus;whiteSpace=wrap;html=1;" vertex="1" parent="1">
          <mxGeometry x="40" y="170" width="200" height="100" as="geometry" />
        </mxCell>
        <mxCell id="wsURAHMhbF8bhhn0U9RA-5" value="&lt;font style=&quot;font-size: 18px;&quot; face=&quot;Lucida Console&quot;&gt;return -1;&lt;/font&gt;" style="rounded=1;whiteSpace=wrap;html=1;arcSize=50;" vertex="1" parent="1">
          <mxGeometry x="280" y="170" width="200" height="100" as="geometry" />
        </mxCell>
        <mxCell id="wsURAHMhbF8bhhn0U9RA-12" style="edgeStyle=orthogonalEdgeStyle;rounded=0;orthogonalLoop=1;jettySize=auto;html=1;exitX=1;exitY=0.5;exitDx=0;exitDy=0;entryX=0;entryY=0.5;entryDx=0;entryDy=0;endArrow=none;endFill=0;" edge="1" parent="1" source="wsURAHMhbF8bhhn0U9RA-6" target="wsURAHMhbF8bhhn0U9RA-7">
          <mxGeometry relative="1" as="geometry" />
        </mxCell>
        <mxCell id="wsURAHMhbF8bhhn0U9RA-13" style="edgeStyle=orthogonalEdgeStyle;rounded=0;orthogonalLoop=1;jettySize=auto;html=1;exitX=0.5;exitY=1;exitDx=0;exitDy=0;entryX=0.5;entryY=0;entryDx=0;entryDy=0;endArrow=none;endFill=0;" edge="1" parent="1" source="wsURAHMhbF8bhhn0U9RA-6" target="wsURAHMhbF8bhhn0U9RA-8">
          <mxGeometry relative="1" as="geometry" />
        </mxCell>
        <mxCell id="wsURAHMhbF8bhhn0U9RA-6" value="&lt;font style=&quot;font-size: 13px;&quot; face=&quot;Lucida Console&quot;&gt;strct1.id &amp;gt; strct2.id&lt;/font&gt;" style="rhombus;whiteSpace=wrap;html=1;" vertex="1" parent="1">
          <mxGeometry x="40" y="300" width="200" height="100" as="geometry" />
        </mxCell>
        <mxCell id="wsURAHMhbF8bhhn0U9RA-7" value="&lt;font style=&quot;font-size: 18px;&quot; face=&quot;Lucida Console&quot;&gt;return 1;&lt;/font&gt;" style="rounded=1;whiteSpace=wrap;html=1;arcSize=50;" vertex="1" parent="1">
          <mxGeometry x="280" y="300" width="200" height="100" as="geometry" />
        </mxCell>
        <mxCell id="wsURAHMhbF8bhhn0U9RA-8" value="&lt;font style=&quot;font-size: 18px;&quot; face=&quot;Lucida Console&quot;&gt;return 0;&lt;/font&gt;" style="rounded=1;whiteSpace=wrap;html=1;arcSize=50;" vertex="1" parent="1">
          <mxGeometry x="40" y="430" width="200" height="100" as="geometry" />
        </mxCell>
        <mxCell id="wsURAHMhbF8bhhn0U9RA-14" style="edgeStyle=orthogonalEdgeStyle;rounded=0;orthogonalLoop=1;jettySize=auto;html=1;exitX=0.5;exitY=1;exitDx=0;exitDy=0;entryX=0.5;entryY=0;entryDx=0;entryDy=0;" edge="1" parent="1" source="wsURAHMhbF8bhhn0U9RA-15" target="wsURAHMhbF8bhhn0U9RA-18">
          <mxGeometry relative="1" as="geometry" />
        </mxCell>
        <mxCell id="wsURAHMhbF8bhhn0U9RA-15" value="&lt;font style=&quot;font-size: 13px;&quot; face=&quot;Lucida Console&quot;&gt;int compare_structs_imp(Data strct1, Data strct2)&lt;/font&gt;" style="rounded=1;whiteSpace=wrap;html=1;arcSize=50;" vertex="1" parent="1">
          <mxGeometry x="520" y="40" width="200" height="100" as="geometry" />
        </mxCell>
        <mxCell id="wsURAHMhbF8bhhn0U9RA-16" style="edgeStyle=orthogonalEdgeStyle;rounded=0;orthogonalLoop=1;jettySize=auto;html=1;exitX=1;exitY=0.5;exitDx=0;exitDy=0;entryX=0;entryY=0.5;entryDx=0;entryDy=0;endArrow=none;endFill=0;" edge="1" parent="1" source="wsURAHMhbF8bhhn0U9RA-18" target="wsURAHMhbF8bhhn0U9RA-19">
          <mxGeometry relative="1" as="geometry" />
        </mxCell>
        <mxCell id="wsURAHMhbF8bhhn0U9RA-17" style="edgeStyle=orthogonalEdgeStyle;rounded=0;orthogonalLoop=1;jettySize=auto;html=1;exitX=0.5;exitY=1;exitDx=0;exitDy=0;entryX=0.5;entryY=0;entryDx=0;entryDy=0;endArrow=none;endFill=0;" edge="1" parent="1" source="wsURAHMhbF8bhhn0U9RA-18" target="wsURAHMhbF8bhhn0U9RA-22">
          <mxGeometry relative="1" as="geometry" />
        </mxCell>
        <mxCell id="wsURAHMhbF8bhhn0U9RA-18" value="&lt;font style=&quot;font-size: 13px;&quot; face=&quot;Lucida Console&quot;&gt;strct1.importance &amp;lt; strct2.importance&lt;/font&gt;" style="rhombus;whiteSpace=wrap;html=1;" vertex="1" parent="1">
          <mxGeometry x="520" y="170" width="200" height="100" as="geometry" />
        </mxCell>
        <mxCell id="wsURAHMhbF8bhhn0U9RA-19" value="&lt;font style=&quot;font-size: 18px;&quot; face=&quot;Lucida Console&quot;&gt;return -1;&lt;/font&gt;" style="rounded=1;whiteSpace=wrap;html=1;arcSize=50;" vertex="1" parent="1">
          <mxGeometry x="760" y="170" width="200" height="100" as="geometry" />
        </mxCell>
        <mxCell id="wsURAHMhbF8bhhn0U9RA-20" style="edgeStyle=orthogonalEdgeStyle;rounded=0;orthogonalLoop=1;jettySize=auto;html=1;exitX=1;exitY=0.5;exitDx=0;exitDy=0;entryX=0;entryY=0.5;entryDx=0;entryDy=0;endArrow=none;endFill=0;" edge="1" parent="1" source="wsURAHMhbF8bhhn0U9RA-22" target="wsURAHMhbF8bhhn0U9RA-23">
          <mxGeometry relative="1" as="geometry" />
        </mxCell>
        <mxCell id="wsURAHMhbF8bhhn0U9RA-21" style="edgeStyle=orthogonalEdgeStyle;rounded=0;orthogonalLoop=1;jettySize=auto;html=1;exitX=0.5;exitY=1;exitDx=0;exitDy=0;entryX=0.5;entryY=0;entryDx=0;entryDy=0;endArrow=none;endFill=0;" edge="1" parent="1" source="wsURAHMhbF8bhhn0U9RA-22" target="wsURAHMhbF8bhhn0U9RA-24">
          <mxGeometry relative="1" as="geometry" />
        </mxCell>
        <mxCell id="wsURAHMhbF8bhhn0U9RA-22" value="&lt;font style=&quot;font-size: 13px;&quot; face=&quot;Lucida Console&quot;&gt;strct1.importance &amp;gt; strct2.importance&lt;/font&gt;" style="rhombus;whiteSpace=wrap;html=1;" vertex="1" parent="1">
          <mxGeometry x="520" y="300" width="200" height="100" as="geometry" />
        </mxCell>
        <mxCell id="wsURAHMhbF8bhhn0U9RA-23" value="&lt;font style=&quot;font-size: 18px;&quot; face=&quot;Lucida Console&quot;&gt;return 1;&lt;/font&gt;" style="rounded=1;whiteSpace=wrap;html=1;arcSize=50;" vertex="1" parent="1">
          <mxGeometry x="760" y="300" width="200" height="100" as="geometry" />
        </mxCell>
        <mxCell id="wsURAHMhbF8bhhn0U9RA-24" value="&lt;font style=&quot;font-size: 18px;&quot; face=&quot;Lucida Console&quot;&gt;return 0;&lt;/font&gt;" style="rounded=1;whiteSpace=wrap;html=1;arcSize=50;" vertex="1" parent="1">
          <mxGeometry x="520" y="430" width="200" height="100" as="geometry" />
        </mxCell>
        <mxCell id="wsURAHMhbF8bhhn0U9RA-27" style="edgeStyle=orthogonalEdgeStyle;rounded=0;orthogonalLoop=1;jettySize=auto;html=1;exitX=0.5;exitY=1;exitDx=0;exitDy=0;entryX=0.5;entryY=0;entryDx=0;entryDy=0;endArrow=none;endFill=0;" edge="1" parent="1" source="wsURAHMhbF8bhhn0U9RA-25" target="wsURAHMhbF8bhhn0U9RA-26">
          <mxGeometry relative="1" as="geometry" />
        </mxCell>
        <mxCell id="wsURAHMhbF8bhhn0U9RA-25" value="&lt;font style=&quot;font-size: 13px;&quot; face=&quot;Lucida Console&quot;&gt;int compare_structs_text(Data strct1, Data strct2)&lt;/font&gt;" style="rounded=1;whiteSpace=wrap;html=1;arcSize=50;" vertex="1" parent="1">
          <mxGeometry x="1000" y="40" width="200" height="100" as="geometry" />
        </mxCell>
        <mxCell id="wsURAHMhbF8bhhn0U9RA-26" value="&lt;font style=&quot;font-size: 16px;&quot; face=&quot;Lucida Console&quot;&gt;return strcmp(strct1.text, strct2.text);&lt;/font&gt;" style="rounded=1;whiteSpace=wrap;html=1;arcSize=50;" vertex="1" parent="1">
          <mxGeometry x="1000" y="170" width="200" height="100" as="geometry" />
        </mxCell>
        <mxCell id="wsURAHMhbF8bhhn0U9RA-31" style="edgeStyle=orthogonalEdgeStyle;rounded=0;orthogonalLoop=1;jettySize=auto;html=1;exitX=0.5;exitY=1;exitDx=0;exitDy=0;entryX=0.5;entryY=0;entryDx=0;entryDy=0;endArrow=none;endFill=0;" edge="1" parent="1" source="wsURAHMhbF8bhhn0U9RA-28" target="wsURAHMhbF8bhhn0U9RA-29">
          <mxGeometry relative="1" as="geometry" />
        </mxCell>
        <mxCell id="wsURAHMhbF8bhhn0U9RA-28" value="&lt;font style=&quot;font-size: 13px;&quot; face=&quot;Lucida Console&quot;&gt;int compare_structs_ptr_id(&lt;br&gt;const void *arg1, const void *arg2)&lt;/font&gt;" style="rounded=1;whiteSpace=wrap;html=1;arcSize=50;" vertex="1" parent="1">
          <mxGeometry x="1240" y="40" width="200" height="100" as="geometry" />
        </mxCell>
        <mxCell id="wsURAHMhbF8bhhn0U9RA-32" style="edgeStyle=orthogonalEdgeStyle;rounded=0;orthogonalLoop=1;jettySize=auto;html=1;exitX=0.5;exitY=1;exitDx=0;exitDy=0;entryX=0.5;entryY=0;entryDx=0;entryDy=0;endArrow=none;endFill=0;" edge="1" parent="1" source="wsURAHMhbF8bhhn0U9RA-29" target="wsURAHMhbF8bhhn0U9RA-30">
          <mxGeometry relative="1" as="geometry" />
        </mxCell>
        <mxCell id="wsURAHMhbF8bhhn0U9RA-29" value="&lt;font style=&quot;font-size: 15px;&quot; face=&quot;Lucida Console&quot;&gt;Data strct1 = *(const&lt;br&gt;Data *)arg1,&lt;br&gt;Data strct2 = *(const&lt;br&gt;Data *)arg2;&lt;/font&gt;" style="rounded=0;whiteSpace=wrap;html=1;" vertex="1" parent="1">
          <mxGeometry x="1240" y="170" width="200" height="100" as="geometry" />
        </mxCell>
        <mxCell id="wsURAHMhbF8bhhn0U9RA-30" value="&lt;font style=&quot;font-size: 15px;&quot; face=&quot;Lucida Console&quot;&gt;return compare_structs_id(&lt;br&gt;strct1, strct2);&lt;/font&gt;" style="rounded=1;whiteSpace=wrap;html=1;arcSize=50;" vertex="1" parent="1">
          <mxGeometry x="1240" y="300" width="200" height="100" as="geometry" />
        </mxCell>
        <mxCell id="wsURAHMhbF8bhhn0U9RA-33" style="edgeStyle=orthogonalEdgeStyle;rounded=0;orthogonalLoop=1;jettySize=auto;html=1;exitX=0.5;exitY=1;exitDx=0;exitDy=0;entryX=0.5;entryY=0;entryDx=0;entryDy=0;endArrow=none;endFill=0;" edge="1" parent="1" source="wsURAHMhbF8bhhn0U9RA-34" target="wsURAHMhbF8bhhn0U9RA-36">
          <mxGeometry relative="1" as="geometry" />
        </mxCell>
        <mxCell id="wsURAHMhbF8bhhn0U9RA-34" value="&lt;font style=&quot;font-size: 13px;&quot; face=&quot;Lucida Console&quot;&gt;int compare_structs_ptr_imp(&lt;br&gt;const void *arg1, const void *arg2)&lt;/font&gt;" style="rounded=1;whiteSpace=wrap;html=1;arcSize=50;" vertex="1" parent="1">
          <mxGeometry x="1480" y="40" width="200" height="100" as="geometry" />
        </mxCell>
        <mxCell id="wsURAHMhbF8bhhn0U9RA-35" style="edgeStyle=orthogonalEdgeStyle;rounded=0;orthogonalLoop=1;jettySize=auto;html=1;exitX=0.5;exitY=1;exitDx=0;exitDy=0;entryX=0.5;entryY=0;entryDx=0;entryDy=0;endArrow=none;endFill=0;" edge="1" parent="1" source="wsURAHMhbF8bhhn0U9RA-36" target="wsURAHMhbF8bhhn0U9RA-37">
          <mxGeometry relative="1" as="geometry" />
        </mxCell>
        <mxCell id="wsURAHMhbF8bhhn0U9RA-36" value="&lt;font style=&quot;font-size: 15px;&quot; face=&quot;Lucida Console&quot;&gt;Data strct1 = *(const&lt;br&gt;Data *)arg1,&lt;br&gt;Data strct2 = *(const&lt;br&gt;Data *)arg2;&lt;/font&gt;" style="rounded=0;whiteSpace=wrap;html=1;" vertex="1" parent="1">
          <mxGeometry x="1480" y="170" width="200" height="100" as="geometry" />
        </mxCell>
        <mxCell id="wsURAHMhbF8bhhn0U9RA-37" value="&lt;font style=&quot;font-size: 15px;&quot; face=&quot;Lucida Console&quot;&gt;return compare_structs_imp(&lt;br&gt;strct1, strct2);&lt;/font&gt;" style="rounded=1;whiteSpace=wrap;html=1;arcSize=50;" vertex="1" parent="1">
          <mxGeometry x="1480" y="300" width="200" height="100" as="geometry" />
        </mxCell>
        <mxCell id="wsURAHMhbF8bhhn0U9RA-38" style="edgeStyle=orthogonalEdgeStyle;rounded=0;orthogonalLoop=1;jettySize=auto;html=1;exitX=0.5;exitY=1;exitDx=0;exitDy=0;entryX=0.5;entryY=0;entryDx=0;entryDy=0;endArrow=none;endFill=0;" edge="1" parent="1" source="wsURAHMhbF8bhhn0U9RA-39" target="wsURAHMhbF8bhhn0U9RA-41">
          <mxGeometry relative="1" as="geometry" />
        </mxCell>
        <mxCell id="wsURAHMhbF8bhhn0U9RA-39" value="&lt;font style=&quot;font-size: 13px;&quot; face=&quot;Lucida Console&quot;&gt;int compare_structs_ptr_text(&lt;br&gt;const void *arg1, const void *arg2)&lt;/font&gt;" style="rounded=1;whiteSpace=wrap;html=1;arcSize=50;" vertex="1" parent="1">
          <mxGeometry x="1720" y="40" width="200" height="100" as="geometry" />
        </mxCell>
        <mxCell id="wsURAHMhbF8bhhn0U9RA-40" style="edgeStyle=orthogonalEdgeStyle;rounded=0;orthogonalLoop=1;jettySize=auto;html=1;exitX=0.5;exitY=1;exitDx=0;exitDy=0;entryX=0.5;entryY=0;entryDx=0;entryDy=0;endArrow=none;endFill=0;" edge="1" parent="1" source="wsURAHMhbF8bhhn0U9RA-41" target="wsURAHMhbF8bhhn0U9RA-42">
          <mxGeometry relative="1" as="geometry" />
        </mxCell>
        <mxCell id="wsURAHMhbF8bhhn0U9RA-41" value="&lt;font style=&quot;font-size: 15px;&quot; face=&quot;Lucida Console&quot;&gt;Data strct1 = *(const&lt;br&gt;Data *)arg1,&lt;br&gt;Data strct2 = *(const&lt;br&gt;Data *)arg2;&lt;/font&gt;" style="rounded=0;whiteSpace=wrap;html=1;" vertex="1" parent="1">
          <mxGeometry x="1720" y="170" width="200" height="100" as="geometry" />
        </mxCell>
        <mxCell id="wsURAHMhbF8bhhn0U9RA-42" value="&lt;font style=&quot;font-size: 15px;&quot; face=&quot;Lucida Console&quot;&gt;return compare_structs_text(&lt;br&gt;strct1, strct2);&lt;/font&gt;" style="rounded=1;whiteSpace=wrap;html=1;arcSize=50;" vertex="1" parent="1">
          <mxGeometry x="1720" y="300" width="200" height="100" as="geometry" />
        </mxCell>
        <mxCell id="wsURAHMhbF8bhhn0U9RA-45" style="edgeStyle=orthogonalEdgeStyle;rounded=0;orthogonalLoop=1;jettySize=auto;html=1;exitX=0.5;exitY=1;exitDx=0;exitDy=0;entryX=0.5;entryY=0;entryDx=0;entryDy=0;endArrow=none;endFill=0;" edge="1" parent="1" source="wsURAHMhbF8bhhn0U9RA-43" target="wsURAHMhbF8bhhn0U9RA-44">
          <mxGeometry relative="1" as="geometry" />
        </mxCell>
        <mxCell id="wsURAHMhbF8bhhn0U9RA-43" value="&lt;font face=&quot;Lucida Console&quot;&gt;int compare_structs_ptr_id_rev(&lt;br&gt;const void *arg1, const void *arg2)&lt;/font&gt;" style="rounded=1;whiteSpace=wrap;html=1;arcSize=50;" vertex="1" parent="1">
          <mxGeometry x="1960" y="40" width="200" height="100" as="geometry" />
        </mxCell>
        <mxCell id="wsURAHMhbF8bhhn0U9RA-44" value="&lt;font style=&quot;font-size: 10px;&quot; face=&quot;Lucida Console&quot;&gt;return -compare_structs_ptr_id&lt;br&gt;(arg1, arg2);&lt;/font&gt;" style="rounded=1;whiteSpace=wrap;html=1;arcSize=50;" vertex="1" parent="1">
          <mxGeometry x="1960" y="170" width="200" height="100" as="geometry" />
        </mxCell>
        <mxCell id="wsURAHMhbF8bhhn0U9RA-46" style="edgeStyle=orthogonalEdgeStyle;rounded=0;orthogonalLoop=1;jettySize=auto;html=1;exitX=0.5;exitY=1;exitDx=0;exitDy=0;entryX=0.5;entryY=0;entryDx=0;entryDy=0;endArrow=none;endFill=0;" edge="1" parent="1" source="wsURAHMhbF8bhhn0U9RA-47" target="wsURAHMhbF8bhhn0U9RA-48">
          <mxGeometry relative="1" as="geometry" />
        </mxCell>
        <mxCell id="wsURAHMhbF8bhhn0U9RA-47" value="&lt;font style=&quot;font-size: 11px;&quot; face=&quot;Lucida Console&quot;&gt;int compare_structs_ptr_imp_rev(&lt;br&gt;const void *arg1, const void *arg2)&lt;/font&gt;" style="rounded=1;whiteSpace=wrap;html=1;arcSize=50;" vertex="1" parent="1">
          <mxGeometry x="2200" y="40" width="200" height="100" as="geometry" />
        </mxCell>
        <mxCell id="wsURAHMhbF8bhhn0U9RA-48" value="&lt;font style=&quot;font-size: 10px;&quot; face=&quot;Lucida Console&quot;&gt;return -compare_structs_ptr_imp&lt;br&gt;(arg1, arg2);&lt;/font&gt;" style="rounded=1;whiteSpace=wrap;html=1;arcSize=50;" vertex="1" parent="1">
          <mxGeometry x="2200" y="170" width="200" height="100" as="geometry" />
        </mxCell>
        <mxCell id="wsURAHMhbF8bhhn0U9RA-49" style="edgeStyle=orthogonalEdgeStyle;rounded=0;orthogonalLoop=1;jettySize=auto;html=1;exitX=0.5;exitY=1;exitDx=0;exitDy=0;entryX=0.5;entryY=0;entryDx=0;entryDy=0;endArrow=none;endFill=0;" edge="1" parent="1" source="wsURAHMhbF8bhhn0U9RA-50" target="wsURAHMhbF8bhhn0U9RA-51">
          <mxGeometry relative="1" as="geometry" />
        </mxCell>
        <mxCell id="wsURAHMhbF8bhhn0U9RA-50" value="&lt;font style=&quot;font-size: 11px;&quot; face=&quot;Lucida Console&quot;&gt;int compare_structs_ptr_text_rev(&lt;br&gt;const void *arg1, const void *arg2)&lt;/font&gt;" style="rounded=1;whiteSpace=wrap;html=1;arcSize=50;" vertex="1" parent="1">
          <mxGeometry x="2440" y="40" width="200" height="100" as="geometry" />
        </mxCell>
        <mxCell id="wsURAHMhbF8bhhn0U9RA-51" value="&lt;font style=&quot;font-size: 10px;&quot; face=&quot;Lucida Console&quot;&gt;return -compare_structs_ptr_text&lt;br&gt;(arg1, arg2);&lt;/font&gt;" style="rounded=1;whiteSpace=wrap;html=1;arcSize=50;" vertex="1" parent="1">
          <mxGeometry x="2440" y="170" width="200" height="100" as="geometry" />
        </mxCell>
        <mxCell id="wsURAHMhbF8bhhn0U9RA-69" style="edgeStyle=orthogonalEdgeStyle;rounded=0;orthogonalLoop=1;jettySize=auto;html=1;exitX=0.5;exitY=1;exitDx=0;exitDy=0;entryX=0.5;entryY=0;entryDx=0;entryDy=0;fontFamily=Lucida Console;fontSize=12;fontColor=default;endArrow=none;endFill=0;" edge="1" parent="1" source="wsURAHMhbF8bhhn0U9RA-52" target="wsURAHMhbF8bhhn0U9RA-55">
          <mxGeometry relative="1" as="geometry" />
        </mxCell>
        <mxCell id="wsURAHMhbF8bhhn0U9RA-52" value="&lt;font face=&quot;Lucida Console&quot;&gt;void my_qsort(Data *arr, int size, Field field, int reversed)&lt;/font&gt;" style="rounded=1;whiteSpace=wrap;html=1;arcSize=50;" vertex="1" parent="1">
          <mxGeometry x="40" y="560" width="200" height="100" as="geometry" />
        </mxCell>
        <mxCell id="wsURAHMhbF8bhhn0U9RA-70" style="edgeStyle=orthogonalEdgeStyle;rounded=0;orthogonalLoop=1;jettySize=auto;html=1;exitX=0.5;exitY=1;exitDx=0;exitDy=0;entryX=0.5;entryY=0;entryDx=0;entryDy=0;fontFamily=Lucida Console;fontSize=12;fontColor=default;endArrow=none;endFill=0;" edge="1" parent="1" source="wsURAHMhbF8bhhn0U9RA-55" target="wsURAHMhbF8bhhn0U9RA-62">
          <mxGeometry relative="1" as="geometry" />
        </mxCell>
        <mxCell id="wsURAHMhbF8bhhn0U9RA-55" value="&lt;font face=&quot;Lucida Console&quot;&gt;int (*comp)(const void *, const void *);&lt;/font&gt;" style="rounded=0;whiteSpace=wrap;html=1;strokeColor=default;align=center;verticalAlign=middle;arcSize=50;fontFamily=Helvetica;fontSize=12;fontColor=default;fillColor=default;" vertex="1" parent="1">
          <mxGeometry x="40" y="690" width="200" height="100" as="geometry" />
        </mxCell>
        <mxCell id="wsURAHMhbF8bhhn0U9RA-72" style="edgeStyle=orthogonalEdgeStyle;rounded=0;orthogonalLoop=1;jettySize=auto;html=1;exitX=1;exitY=0.5;exitDx=0;exitDy=0;entryX=0;entryY=0.5;entryDx=0;entryDy=0;fontFamily=Lucida Console;fontSize=12;fontColor=default;endArrow=none;endFill=0;" edge="1" parent="1" source="wsURAHMhbF8bhhn0U9RA-56" target="wsURAHMhbF8bhhn0U9RA-57">
          <mxGeometry relative="1" as="geometry" />
        </mxCell>
        <mxCell id="wsURAHMhbF8bhhn0U9RA-73" style="edgeStyle=orthogonalEdgeStyle;rounded=0;orthogonalLoop=1;jettySize=auto;html=1;exitX=0.5;exitY=1;exitDx=0;exitDy=0;entryX=0.5;entryY=0;entryDx=0;entryDy=0;fontFamily=Lucida Console;fontSize=12;fontColor=default;endArrow=none;endFill=0;" edge="1" parent="1" source="wsURAHMhbF8bhhn0U9RA-56" target="wsURAHMhbF8bhhn0U9RA-58">
          <mxGeometry relative="1" as="geometry" />
        </mxCell>
        <mxCell id="wsURAHMhbF8bhhn0U9RA-56" value="&lt;font style=&quot;font-size: 16px;&quot;&gt;field == f_id&lt;/font&gt;" style="rhombus;whiteSpace=wrap;html=1;rounded=0;strokeColor=default;align=center;verticalAlign=middle;arcSize=50;fontFamily=Lucida Console;fontSize=12;fontColor=default;fillColor=default;" vertex="1" parent="1">
          <mxGeometry x="40" y="950" width="200" height="100" as="geometry" />
        </mxCell>
        <mxCell id="wsURAHMhbF8bhhn0U9RA-135" style="edgeStyle=orthogonalEdgeStyle;shape=connector;rounded=0;orthogonalLoop=1;jettySize=auto;html=1;exitX=1;exitY=0.5;exitDx=0;exitDy=0;strokeColor=default;align=center;verticalAlign=middle;fontFamily=Lucida Console;fontSize=12;fontColor=default;labelBackgroundColor=none;endArrow=none;endFill=0;" edge="1" parent="1" source="wsURAHMhbF8bhhn0U9RA-57">
          <mxGeometry relative="1" as="geometry">
            <mxPoint x="490" y="1390" as="targetPoint" />
            <Array as="points">
              <mxPoint x="490" y="1000" />
              <mxPoint x="490" y="1220" />
              <mxPoint x="491" y="1390" />
            </Array>
          </mxGeometry>
        </mxCell>
        <mxCell id="wsURAHMhbF8bhhn0U9RA-57" value="&lt;font style=&quot;font-size: 14px;&quot;&gt;comp = compare_structs_ptr_id;&lt;/font&gt;" style="rounded=0;whiteSpace=wrap;html=1;strokeColor=default;align=center;verticalAlign=middle;arcSize=50;fontFamily=Lucida Console;fontSize=12;fontColor=default;fillColor=default;" vertex="1" parent="1">
          <mxGeometry x="280" y="950" width="200" height="100" as="geometry" />
        </mxCell>
        <mxCell id="wsURAHMhbF8bhhn0U9RA-74" style="edgeStyle=orthogonalEdgeStyle;rounded=0;orthogonalLoop=1;jettySize=auto;html=1;exitX=1;exitY=0.5;exitDx=0;exitDy=0;entryX=0;entryY=0.5;entryDx=0;entryDy=0;fontFamily=Lucida Console;fontSize=12;fontColor=default;endArrow=none;endFill=0;" edge="1" parent="1" source="wsURAHMhbF8bhhn0U9RA-58" target="wsURAHMhbF8bhhn0U9RA-59">
          <mxGeometry relative="1" as="geometry" />
        </mxCell>
        <mxCell id="wsURAHMhbF8bhhn0U9RA-75" style="edgeStyle=orthogonalEdgeStyle;rounded=0;orthogonalLoop=1;jettySize=auto;html=1;exitX=0.5;exitY=1;exitDx=0;exitDy=0;entryX=0.5;entryY=0;entryDx=0;entryDy=0;fontFamily=Lucida Console;fontSize=12;fontColor=default;endArrow=none;endFill=0;" edge="1" parent="1" source="wsURAHMhbF8bhhn0U9RA-58" target="wsURAHMhbF8bhhn0U9RA-60">
          <mxGeometry relative="1" as="geometry" />
        </mxCell>
        <mxCell id="wsURAHMhbF8bhhn0U9RA-58" value="&lt;font style=&quot;font-size: 16px;&quot;&gt;field == f_imp&lt;/font&gt;" style="rhombus;whiteSpace=wrap;html=1;rounded=0;strokeColor=default;align=center;verticalAlign=middle;arcSize=50;fontFamily=Lucida Console;fontSize=12;fontColor=default;fillColor=default;" vertex="1" parent="1">
          <mxGeometry x="40" y="1080" width="200" height="100" as="geometry" />
        </mxCell>
        <mxCell id="wsURAHMhbF8bhhn0U9RA-136" style="edgeStyle=orthogonalEdgeStyle;shape=connector;rounded=0;orthogonalLoop=1;jettySize=auto;html=1;exitX=1;exitY=0.5;exitDx=0;exitDy=0;strokeColor=default;align=center;verticalAlign=middle;fontFamily=Lucida Console;fontSize=12;fontColor=default;labelBackgroundColor=none;endArrow=none;endFill=0;" edge="1" parent="1" source="wsURAHMhbF8bhhn0U9RA-59">
          <mxGeometry relative="1" as="geometry">
            <mxPoint x="490" y="1130.1515151515152" as="targetPoint" />
          </mxGeometry>
        </mxCell>
        <mxCell id="wsURAHMhbF8bhhn0U9RA-59" value="&lt;font style=&quot;font-size: 13px;&quot;&gt;comp = compare_structs_ptr_imp;&lt;/font&gt;" style="rounded=0;whiteSpace=wrap;html=1;strokeColor=default;align=center;verticalAlign=middle;arcSize=50;fontFamily=Lucida Console;fontSize=12;fontColor=default;fillColor=default;" vertex="1" parent="1">
          <mxGeometry x="280" y="1080" width="200" height="100" as="geometry" />
        </mxCell>
        <mxCell id="wsURAHMhbF8bhhn0U9RA-76" style="edgeStyle=orthogonalEdgeStyle;rounded=0;orthogonalLoop=1;jettySize=auto;html=1;exitX=1;exitY=0.5;exitDx=0;exitDy=0;entryX=0;entryY=0.5;entryDx=0;entryDy=0;fontFamily=Lucida Console;fontSize=12;fontColor=default;endArrow=none;endFill=0;" edge="1" parent="1" source="wsURAHMhbF8bhhn0U9RA-60" target="wsURAHMhbF8bhhn0U9RA-61">
          <mxGeometry relative="1" as="geometry" />
        </mxCell>
        <mxCell id="wsURAHMhbF8bhhn0U9RA-84" style="edgeStyle=orthogonalEdgeStyle;shape=connector;rounded=0;orthogonalLoop=1;jettySize=auto;html=1;exitX=0.5;exitY=1;exitDx=0;exitDy=0;entryX=0.5;entryY=0;entryDx=0;entryDy=0;strokeColor=default;align=center;verticalAlign=middle;fontFamily=Lucida Console;fontSize=12;fontColor=default;labelBackgroundColor=default;endArrow=none;endFill=0;" edge="1" parent="1" source="wsURAHMhbF8bhhn0U9RA-60" target="wsURAHMhbF8bhhn0U9RA-83">
          <mxGeometry relative="1" as="geometry" />
        </mxCell>
        <mxCell id="wsURAHMhbF8bhhn0U9RA-60" value="&lt;font style=&quot;font-size: 16px;&quot;&gt;field == f_text&lt;/font&gt;" style="rhombus;whiteSpace=wrap;html=1;rounded=0;strokeColor=default;align=center;verticalAlign=middle;arcSize=50;fontFamily=Lucida Console;fontSize=12;fontColor=default;fillColor=default;" vertex="1" parent="1">
          <mxGeometry x="40" y="1210" width="200" height="100" as="geometry" />
        </mxCell>
        <mxCell id="wsURAHMhbF8bhhn0U9RA-137" style="edgeStyle=orthogonalEdgeStyle;shape=connector;rounded=0;orthogonalLoop=1;jettySize=auto;html=1;exitX=1;exitY=0.5;exitDx=0;exitDy=0;strokeColor=default;align=center;verticalAlign=middle;fontFamily=Lucida Console;fontSize=12;fontColor=default;labelBackgroundColor=none;endArrow=none;endFill=0;" edge="1" parent="1" source="wsURAHMhbF8bhhn0U9RA-61">
          <mxGeometry relative="1" as="geometry">
            <mxPoint x="490" y="1259.848484848485" as="targetPoint" />
          </mxGeometry>
        </mxCell>
        <mxCell id="wsURAHMhbF8bhhn0U9RA-61" value="&lt;font style=&quot;font-size: 13px;&quot;&gt;comp = compare_structs_ptr_text;&lt;/font&gt;" style="rounded=0;whiteSpace=wrap;html=1;strokeColor=default;align=center;verticalAlign=middle;arcSize=50;fontFamily=Lucida Console;fontSize=12;fontColor=default;fillColor=default;" vertex="1" parent="1">
          <mxGeometry x="280" y="1210" width="200" height="100" as="geometry" />
        </mxCell>
        <mxCell id="wsURAHMhbF8bhhn0U9RA-71" style="edgeStyle=orthogonalEdgeStyle;rounded=0;orthogonalLoop=1;jettySize=auto;html=1;exitX=0.5;exitY=1;exitDx=0;exitDy=0;entryX=0.5;entryY=0;entryDx=0;entryDy=0;fontFamily=Lucida Console;fontSize=12;fontColor=default;endArrow=none;endFill=0;" edge="1" parent="1" source="wsURAHMhbF8bhhn0U9RA-62" target="wsURAHMhbF8bhhn0U9RA-56">
          <mxGeometry relative="1" as="geometry" />
        </mxCell>
        <mxCell id="wsURAHMhbF8bhhn0U9RA-77" style="edgeStyle=orthogonalEdgeStyle;shape=connector;rounded=0;orthogonalLoop=1;jettySize=auto;html=1;exitX=1;exitY=0.5;exitDx=0;exitDy=0;entryX=0.5;entryY=0;entryDx=0;entryDy=0;strokeColor=default;align=center;verticalAlign=middle;fontFamily=Lucida Console;fontSize=12;fontColor=default;labelBackgroundColor=default;endArrow=none;endFill=0;" edge="1" parent="1" source="wsURAHMhbF8bhhn0U9RA-62" target="wsURAHMhbF8bhhn0U9RA-63">
          <mxGeometry relative="1" as="geometry" />
        </mxCell>
        <mxCell id="wsURAHMhbF8bhhn0U9RA-62" value="&lt;font style=&quot;font-size: 18px;&quot;&gt;!reversed&lt;/font&gt;" style="rhombus;whiteSpace=wrap;html=1;rounded=0;strokeColor=default;align=center;verticalAlign=middle;arcSize=50;fontFamily=Lucida Console;fontSize=12;fontColor=default;fillColor=default;" vertex="1" parent="1">
          <mxGeometry x="40" y="820" width="200" height="100" as="geometry" />
        </mxCell>
        <mxCell id="wsURAHMhbF8bhhn0U9RA-78" style="edgeStyle=orthogonalEdgeStyle;shape=connector;rounded=0;orthogonalLoop=1;jettySize=auto;html=1;exitX=1;exitY=0.5;exitDx=0;exitDy=0;entryX=0;entryY=0.5;entryDx=0;entryDy=0;strokeColor=default;align=center;verticalAlign=middle;fontFamily=Lucida Console;fontSize=12;fontColor=default;labelBackgroundColor=default;endArrow=none;endFill=0;" edge="1" parent="1" source="wsURAHMhbF8bhhn0U9RA-63" target="wsURAHMhbF8bhhn0U9RA-64">
          <mxGeometry relative="1" as="geometry" />
        </mxCell>
        <mxCell id="wsURAHMhbF8bhhn0U9RA-79" style="edgeStyle=orthogonalEdgeStyle;shape=connector;rounded=0;orthogonalLoop=1;jettySize=auto;html=1;exitX=0.5;exitY=1;exitDx=0;exitDy=0;entryX=0.5;entryY=0;entryDx=0;entryDy=0;strokeColor=default;align=center;verticalAlign=middle;fontFamily=Lucida Console;fontSize=12;fontColor=default;labelBackgroundColor=default;endArrow=none;endFill=0;" edge="1" parent="1" source="wsURAHMhbF8bhhn0U9RA-63" target="wsURAHMhbF8bhhn0U9RA-65">
          <mxGeometry relative="1" as="geometry" />
        </mxCell>
        <mxCell id="wsURAHMhbF8bhhn0U9RA-63" value="&lt;font style=&quot;font-size: 16px;&quot;&gt;field == f_id&lt;/font&gt;" style="rhombus;whiteSpace=wrap;html=1;rounded=0;strokeColor=default;align=center;verticalAlign=middle;arcSize=50;fontFamily=Lucida Console;fontSize=12;fontColor=default;fillColor=default;" vertex="1" parent="1">
          <mxGeometry x="520" y="950" width="200" height="100" as="geometry" />
        </mxCell>
        <mxCell id="wsURAHMhbF8bhhn0U9RA-131" style="edgeStyle=orthogonalEdgeStyle;shape=connector;rounded=0;orthogonalLoop=1;jettySize=auto;html=1;exitX=1;exitY=0.5;exitDx=0;exitDy=0;strokeColor=default;align=center;verticalAlign=middle;fontFamily=Lucida Console;fontSize=12;fontColor=default;labelBackgroundColor=none;endArrow=classic;endFill=1;" edge="1" parent="1" source="wsURAHMhbF8bhhn0U9RA-64">
          <mxGeometry relative="1" as="geometry">
            <mxPoint x="620" y="1390" as="targetPoint" />
            <Array as="points">
              <mxPoint x="970" y="1000" />
              <mxPoint x="970" y="1390" />
            </Array>
          </mxGeometry>
        </mxCell>
        <mxCell id="wsURAHMhbF8bhhn0U9RA-64" value="&lt;font&gt;comp = compare_structs_ptr_id_rev;&lt;/font&gt;" style="rounded=0;whiteSpace=wrap;html=1;strokeColor=default;align=center;verticalAlign=middle;arcSize=50;fontFamily=Lucida Console;fontSize=12;fontColor=default;fillColor=default;" vertex="1" parent="1">
          <mxGeometry x="760" y="950" width="200" height="100" as="geometry" />
        </mxCell>
        <mxCell id="wsURAHMhbF8bhhn0U9RA-80" style="edgeStyle=orthogonalEdgeStyle;shape=connector;rounded=0;orthogonalLoop=1;jettySize=auto;html=1;exitX=1;exitY=0.5;exitDx=0;exitDy=0;entryX=0;entryY=0.5;entryDx=0;entryDy=0;strokeColor=default;align=center;verticalAlign=middle;fontFamily=Lucida Console;fontSize=12;fontColor=default;labelBackgroundColor=default;endArrow=none;endFill=0;" edge="1" parent="1" source="wsURAHMhbF8bhhn0U9RA-65" target="wsURAHMhbF8bhhn0U9RA-66">
          <mxGeometry relative="1" as="geometry" />
        </mxCell>
        <mxCell id="wsURAHMhbF8bhhn0U9RA-81" style="edgeStyle=orthogonalEdgeStyle;shape=connector;rounded=0;orthogonalLoop=1;jettySize=auto;html=1;exitX=0.5;exitY=1;exitDx=0;exitDy=0;entryX=0.5;entryY=0;entryDx=0;entryDy=0;strokeColor=default;align=center;verticalAlign=middle;fontFamily=Lucida Console;fontSize=12;fontColor=default;labelBackgroundColor=default;endArrow=none;endFill=0;" edge="1" parent="1" source="wsURAHMhbF8bhhn0U9RA-65" target="wsURAHMhbF8bhhn0U9RA-67">
          <mxGeometry relative="1" as="geometry" />
        </mxCell>
        <mxCell id="wsURAHMhbF8bhhn0U9RA-65" value="&lt;font style=&quot;font-size: 16px;&quot;&gt;field == f_imp&lt;/font&gt;" style="rhombus;whiteSpace=wrap;html=1;rounded=0;strokeColor=default;align=center;verticalAlign=middle;arcSize=50;fontFamily=Lucida Console;fontSize=12;fontColor=default;fillColor=default;" vertex="1" parent="1">
          <mxGeometry x="520" y="1080" width="200" height="100" as="geometry" />
        </mxCell>
        <mxCell id="wsURAHMhbF8bhhn0U9RA-132" style="edgeStyle=orthogonalEdgeStyle;shape=connector;rounded=0;orthogonalLoop=1;jettySize=auto;html=1;exitX=1;exitY=0.5;exitDx=0;exitDy=0;strokeColor=default;align=center;verticalAlign=middle;fontFamily=Lucida Console;fontSize=12;fontColor=default;labelBackgroundColor=none;endArrow=none;endFill=0;" edge="1" parent="1" source="wsURAHMhbF8bhhn0U9RA-66">
          <mxGeometry relative="1" as="geometry">
            <mxPoint x="970" y="1130" as="targetPoint" />
          </mxGeometry>
        </mxCell>
        <mxCell id="wsURAHMhbF8bhhn0U9RA-66" value="&lt;font&gt;comp = compare_structs_ptr_imp_rev;&lt;/font&gt;" style="rounded=0;whiteSpace=wrap;html=1;strokeColor=default;align=center;verticalAlign=middle;arcSize=50;fontFamily=Lucida Console;fontSize=12;fontColor=default;fillColor=default;" vertex="1" parent="1">
          <mxGeometry x="760" y="1080" width="200" height="100" as="geometry" />
        </mxCell>
        <mxCell id="wsURAHMhbF8bhhn0U9RA-82" style="edgeStyle=orthogonalEdgeStyle;shape=connector;rounded=0;orthogonalLoop=1;jettySize=auto;html=1;exitX=1;exitY=0.5;exitDx=0;exitDy=0;entryX=0;entryY=0.5;entryDx=0;entryDy=0;strokeColor=default;align=center;verticalAlign=middle;fontFamily=Lucida Console;fontSize=12;fontColor=default;labelBackgroundColor=default;endArrow=none;endFill=0;" edge="1" parent="1" source="wsURAHMhbF8bhhn0U9RA-67" target="wsURAHMhbF8bhhn0U9RA-68">
          <mxGeometry relative="1" as="geometry" />
        </mxCell>
        <mxCell id="wsURAHMhbF8bhhn0U9RA-85" style="edgeStyle=orthogonalEdgeStyle;shape=connector;rounded=0;orthogonalLoop=1;jettySize=auto;html=1;exitX=0.5;exitY=1;exitDx=0;exitDy=0;entryX=1;entryY=0.5;entryDx=0;entryDy=0;strokeColor=default;align=center;verticalAlign=middle;fontFamily=Lucida Console;fontSize=12;fontColor=default;labelBackgroundColor=default;endArrow=classic;endFill=1;" edge="1" parent="1" source="wsURAHMhbF8bhhn0U9RA-67" target="wsURAHMhbF8bhhn0U9RA-83">
          <mxGeometry relative="1" as="geometry" />
        </mxCell>
        <mxCell id="wsURAHMhbF8bhhn0U9RA-67" value="&lt;font style=&quot;font-size: 16px;&quot;&gt;field == f_text&lt;/font&gt;" style="rhombus;whiteSpace=wrap;html=1;rounded=0;strokeColor=default;align=center;verticalAlign=middle;arcSize=50;fontFamily=Lucida Console;fontSize=12;fontColor=default;fillColor=default;" vertex="1" parent="1">
          <mxGeometry x="520" y="1210" width="200" height="100" as="geometry" />
        </mxCell>
        <mxCell id="wsURAHMhbF8bhhn0U9RA-133" style="edgeStyle=orthogonalEdgeStyle;shape=connector;rounded=0;orthogonalLoop=1;jettySize=auto;html=1;exitX=1;exitY=0.5;exitDx=0;exitDy=0;strokeColor=default;align=center;verticalAlign=middle;fontFamily=Lucida Console;fontSize=12;fontColor=default;labelBackgroundColor=none;endArrow=none;endFill=0;" edge="1" parent="1" source="wsURAHMhbF8bhhn0U9RA-68">
          <mxGeometry relative="1" as="geometry">
            <mxPoint x="970" y="1260" as="targetPoint" />
          </mxGeometry>
        </mxCell>
        <mxCell id="wsURAHMhbF8bhhn0U9RA-68" value="&lt;font style=&quot;font-size: 11px;&quot;&gt;comp = compare_structs_ptr_text_rev;&lt;/font&gt;" style="rounded=0;whiteSpace=wrap;html=1;strokeColor=default;align=center;verticalAlign=middle;arcSize=50;fontFamily=Lucida Console;fontSize=12;fontColor=default;fillColor=default;" vertex="1" parent="1">
          <mxGeometry x="760" y="1210" width="200" height="100" as="geometry" />
        </mxCell>
        <mxCell id="wsURAHMhbF8bhhn0U9RA-93" style="edgeStyle=orthogonalEdgeStyle;shape=connector;rounded=0;orthogonalLoop=1;jettySize=auto;html=1;exitX=0.5;exitY=1;exitDx=0;exitDy=0;entryX=0.5;entryY=0;entryDx=0;entryDy=0;strokeColor=default;align=center;verticalAlign=middle;fontFamily=Lucida Console;fontSize=12;fontColor=default;labelBackgroundColor=default;endArrow=none;endFill=0;" edge="1" parent="1" source="wsURAHMhbF8bhhn0U9RA-83" target="wsURAHMhbF8bhhn0U9RA-92">
          <mxGeometry relative="1" as="geometry" />
        </mxCell>
        <mxCell id="wsURAHMhbF8bhhn0U9RA-83" value="&lt;font style=&quot;font-size: 16px;&quot;&gt;qsort(arr, size, sizeof(Data), comp);&lt;/font&gt;" style="rounded=0;whiteSpace=wrap;html=1;strokeColor=default;align=center;verticalAlign=middle;arcSize=50;fontFamily=Lucida Console;fontSize=12;fontColor=default;labelBackgroundColor=default;fillColor=default;" vertex="1" parent="1">
          <mxGeometry x="40" y="1340" width="200" height="100" as="geometry" />
        </mxCell>
        <mxCell id="wsURAHMhbF8bhhn0U9RA-92" value="&lt;font style=&quot;font-size: 18px;&quot;&gt;Конец&lt;/font&gt;" style="rounded=1;whiteSpace=wrap;html=1;strokeColor=default;align=center;verticalAlign=middle;arcSize=50;fontFamily=Lucida Console;fontSize=12;fontColor=default;labelBackgroundColor=default;fillColor=default;" vertex="1" parent="1">
          <mxGeometry x="40" y="1470" width="200" height="100" as="geometry" />
        </mxCell>
        <mxCell id="wsURAHMhbF8bhhn0U9RA-162" style="edgeStyle=orthogonalEdgeStyle;shape=connector;rounded=0;orthogonalLoop=1;jettySize=auto;html=1;exitX=0.5;exitY=1;exitDx=0;exitDy=0;entryX=0.5;entryY=0;entryDx=0;entryDy=0;strokeColor=default;align=center;verticalAlign=middle;fontFamily=Lucida Console;fontSize=12;fontColor=default;labelBackgroundColor=none;endArrow=none;endFill=0;" edge="1" parent="1" source="wsURAHMhbF8bhhn0U9RA-94" target="wsURAHMhbF8bhhn0U9RA-95">
          <mxGeometry relative="1" as="geometry" />
        </mxCell>
        <mxCell id="wsURAHMhbF8bhhn0U9RA-94" value="void odd_even_sort(Data *arr, int size, Field field, int reversed)" style="rounded=1;whiteSpace=wrap;html=1;strokeColor=default;align=center;verticalAlign=middle;arcSize=50;fontFamily=Lucida Console;fontSize=12;fontColor=default;labelBackgroundColor=none;fillColor=default;" vertex="1" parent="1">
          <mxGeometry x="1000" y="560" width="200" height="100" as="geometry" />
        </mxCell>
        <mxCell id="wsURAHMhbF8bhhn0U9RA-163" style="edgeStyle=orthogonalEdgeStyle;shape=connector;rounded=0;orthogonalLoop=1;jettySize=auto;html=1;exitX=1;exitY=0.5;exitDx=0;exitDy=0;entryX=0;entryY=0.5;entryDx=0;entryDy=0;strokeColor=default;align=center;verticalAlign=middle;fontFamily=Lucida Console;fontSize=12;fontColor=default;labelBackgroundColor=none;endArrow=none;endFill=0;" edge="1" parent="1" source="wsURAHMhbF8bhhn0U9RA-95" target="wsURAHMhbF8bhhn0U9RA-96">
          <mxGeometry relative="1" as="geometry" />
        </mxCell>
        <mxCell id="wsURAHMhbF8bhhn0U9RA-164" style="edgeStyle=orthogonalEdgeStyle;shape=connector;rounded=0;orthogonalLoop=1;jettySize=auto;html=1;exitX=0.5;exitY=1;exitDx=0;exitDy=0;entryX=0.5;entryY=0;entryDx=0;entryDy=0;strokeColor=default;align=center;verticalAlign=middle;fontFamily=Lucida Console;fontSize=12;fontColor=default;labelBackgroundColor=none;endArrow=none;endFill=0;" edge="1" parent="1" source="wsURAHMhbF8bhhn0U9RA-95" target="wsURAHMhbF8bhhn0U9RA-97">
          <mxGeometry relative="1" as="geometry" />
        </mxCell>
        <mxCell id="wsURAHMhbF8bhhn0U9RA-95" value="arr == NULL ||&lt;br&gt;&amp;nbsp;size == 0" style="rhombus;whiteSpace=wrap;html=1;rounded=0;strokeColor=default;align=center;verticalAlign=middle;arcSize=50;fontFamily=Lucida Console;fontSize=12;fontColor=default;labelBackgroundColor=none;fillColor=default;" vertex="1" parent="1">
          <mxGeometry x="1000" y="690" width="200" height="100" as="geometry" />
        </mxCell>
        <mxCell id="wsURAHMhbF8bhhn0U9RA-96" value="&lt;font style=&quot;font-size: 18px;&quot;&gt;Конец&lt;/font&gt;" style="rounded=1;whiteSpace=wrap;html=1;strokeColor=default;align=center;verticalAlign=middle;arcSize=50;fontFamily=Lucida Console;fontSize=12;fontColor=default;labelBackgroundColor=none;fillColor=default;" vertex="1" parent="1">
          <mxGeometry x="1240" y="690" width="200" height="100" as="geometry" />
        </mxCell>
        <mxCell id="wsURAHMhbF8bhhn0U9RA-165" style="edgeStyle=orthogonalEdgeStyle;shape=connector;rounded=0;orthogonalLoop=1;jettySize=auto;html=1;exitX=0.5;exitY=1;exitDx=0;exitDy=0;entryX=0.5;entryY=0;entryDx=0;entryDy=0;strokeColor=default;align=center;verticalAlign=middle;fontFamily=Lucida Console;fontSize=12;fontColor=default;labelBackgroundColor=none;endArrow=none;endFill=0;" edge="1" parent="1" source="wsURAHMhbF8bhhn0U9RA-97" target="wsURAHMhbF8bhhn0U9RA-100">
          <mxGeometry relative="1" as="geometry" />
        </mxCell>
        <mxCell id="wsURAHMhbF8bhhn0U9RA-97" value="int flag = 0;&lt;br&gt;int (*comp)(Data, Data);" style="rounded=0;whiteSpace=wrap;html=1;strokeColor=default;align=center;verticalAlign=middle;arcSize=50;fontFamily=Lucida Console;fontSize=12;fontColor=default;labelBackgroundColor=none;fillColor=default;" vertex="1" parent="1">
          <mxGeometry x="1000" y="820" width="200" height="100" as="geometry" />
        </mxCell>
        <mxCell id="wsURAHMhbF8bhhn0U9RA-98" style="edgeStyle=orthogonalEdgeStyle;rounded=0;orthogonalLoop=1;jettySize=auto;html=1;exitX=1;exitY=0.5;exitDx=0;exitDy=0;entryX=0;entryY=0.5;entryDx=0;entryDy=0;fontFamily=Lucida Console;fontSize=12;fontColor=default;endArrow=none;endFill=0;" edge="1" parent="1" source="wsURAHMhbF8bhhn0U9RA-100" target="wsURAHMhbF8bhhn0U9RA-102">
          <mxGeometry relative="1" as="geometry" />
        </mxCell>
        <mxCell id="wsURAHMhbF8bhhn0U9RA-99" style="edgeStyle=orthogonalEdgeStyle;rounded=0;orthogonalLoop=1;jettySize=auto;html=1;exitX=0.5;exitY=1;exitDx=0;exitDy=0;entryX=0.5;entryY=0;entryDx=0;entryDy=0;fontFamily=Lucida Console;fontSize=12;fontColor=default;endArrow=none;endFill=0;" edge="1" parent="1" source="wsURAHMhbF8bhhn0U9RA-100" target="wsURAHMhbF8bhhn0U9RA-105">
          <mxGeometry relative="1" as="geometry" />
        </mxCell>
        <mxCell id="wsURAHMhbF8bhhn0U9RA-100" value="&lt;font style=&quot;font-size: 16px;&quot;&gt;field == f_id&lt;/font&gt;" style="rhombus;whiteSpace=wrap;html=1;rounded=0;strokeColor=default;align=center;verticalAlign=middle;arcSize=50;fontFamily=Lucida Console;fontSize=12;fontColor=default;fillColor=default;" vertex="1" parent="1">
          <mxGeometry x="1000" y="950" width="200" height="100" as="geometry" />
        </mxCell>
        <mxCell id="wsURAHMhbF8bhhn0U9RA-181" style="edgeStyle=orthogonalEdgeStyle;shape=connector;rounded=0;orthogonalLoop=1;jettySize=auto;html=1;exitX=1;exitY=0.5;exitDx=0;exitDy=0;strokeColor=default;align=center;verticalAlign=middle;fontFamily=Lucida Console;fontSize=12;fontColor=default;labelBackgroundColor=none;endArrow=classic;endFill=1;" edge="1" parent="1" source="wsURAHMhbF8bhhn0U9RA-102">
          <mxGeometry relative="1" as="geometry">
            <mxPoint x="1100" y="1320" as="targetPoint" />
            <Array as="points">
              <mxPoint x="1450" y="1000" />
              <mxPoint x="1450" y="1320" />
            </Array>
          </mxGeometry>
        </mxCell>
        <mxCell id="wsURAHMhbF8bhhn0U9RA-102" value="&lt;font style=&quot;font-size: 14px;&quot;&gt;comp = compare_structs_ptr_id;&lt;/font&gt;" style="rounded=0;whiteSpace=wrap;html=1;strokeColor=default;align=center;verticalAlign=middle;arcSize=50;fontFamily=Lucida Console;fontSize=12;fontColor=default;fillColor=default;" vertex="1" parent="1">
          <mxGeometry x="1240" y="950" width="200" height="100" as="geometry" />
        </mxCell>
        <mxCell id="wsURAHMhbF8bhhn0U9RA-103" style="edgeStyle=orthogonalEdgeStyle;rounded=0;orthogonalLoop=1;jettySize=auto;html=1;exitX=1;exitY=0.5;exitDx=0;exitDy=0;entryX=0;entryY=0.5;entryDx=0;entryDy=0;fontFamily=Lucida Console;fontSize=12;fontColor=default;endArrow=none;endFill=0;" edge="1" parent="1" source="wsURAHMhbF8bhhn0U9RA-105" target="wsURAHMhbF8bhhn0U9RA-107">
          <mxGeometry relative="1" as="geometry" />
        </mxCell>
        <mxCell id="wsURAHMhbF8bhhn0U9RA-104" style="edgeStyle=orthogonalEdgeStyle;rounded=0;orthogonalLoop=1;jettySize=auto;html=1;exitX=0.5;exitY=1;exitDx=0;exitDy=0;entryX=0.5;entryY=0;entryDx=0;entryDy=0;fontFamily=Lucida Console;fontSize=12;fontColor=default;endArrow=none;endFill=0;" edge="1" parent="1" source="wsURAHMhbF8bhhn0U9RA-105" target="wsURAHMhbF8bhhn0U9RA-110">
          <mxGeometry relative="1" as="geometry" />
        </mxCell>
        <mxCell id="wsURAHMhbF8bhhn0U9RA-105" value="&lt;font style=&quot;font-size: 16px;&quot;&gt;field == f_imp&lt;/font&gt;" style="rhombus;whiteSpace=wrap;html=1;rounded=0;strokeColor=default;align=center;verticalAlign=middle;arcSize=50;fontFamily=Lucida Console;fontSize=12;fontColor=default;fillColor=default;" vertex="1" parent="1">
          <mxGeometry x="1000" y="1080" width="200" height="100" as="geometry" />
        </mxCell>
        <mxCell id="wsURAHMhbF8bhhn0U9RA-182" style="edgeStyle=orthogonalEdgeStyle;shape=connector;rounded=0;orthogonalLoop=1;jettySize=auto;html=1;exitX=1;exitY=0.5;exitDx=0;exitDy=0;strokeColor=default;align=center;verticalAlign=middle;fontFamily=Lucida Console;fontSize=12;fontColor=default;labelBackgroundColor=none;endArrow=none;endFill=0;" edge="1" parent="1" source="wsURAHMhbF8bhhn0U9RA-107">
          <mxGeometry relative="1" as="geometry">
            <mxPoint x="1450" y="1130.2608695652175" as="targetPoint" />
          </mxGeometry>
        </mxCell>
        <mxCell id="wsURAHMhbF8bhhn0U9RA-107" value="&lt;font style=&quot;font-size: 13px;&quot;&gt;comp = compare_structs_ptr_imp;&lt;/font&gt;" style="rounded=0;whiteSpace=wrap;html=1;strokeColor=default;align=center;verticalAlign=middle;arcSize=50;fontFamily=Lucida Console;fontSize=12;fontColor=default;fillColor=default;" vertex="1" parent="1">
          <mxGeometry x="1240" y="1080" width="200" height="100" as="geometry" />
        </mxCell>
        <mxCell id="wsURAHMhbF8bhhn0U9RA-108" style="edgeStyle=orthogonalEdgeStyle;rounded=0;orthogonalLoop=1;jettySize=auto;html=1;exitX=1;exitY=0.5;exitDx=0;exitDy=0;entryX=0;entryY=0.5;entryDx=0;entryDy=0;fontFamily=Lucida Console;fontSize=12;fontColor=default;endArrow=none;endFill=0;" edge="1" parent="1" source="wsURAHMhbF8bhhn0U9RA-110" target="wsURAHMhbF8bhhn0U9RA-112">
          <mxGeometry relative="1" as="geometry" />
        </mxCell>
        <mxCell id="wsURAHMhbF8bhhn0U9RA-166" style="edgeStyle=orthogonalEdgeStyle;shape=connector;rounded=0;orthogonalLoop=1;jettySize=auto;html=1;exitX=0.5;exitY=1;exitDx=0;exitDy=0;entryX=0.5;entryY=0;entryDx=0;entryDy=0;strokeColor=default;align=center;verticalAlign=middle;fontFamily=Lucida Console;fontSize=12;fontColor=default;labelBackgroundColor=none;endArrow=none;endFill=0;" edge="1" parent="1" source="wsURAHMhbF8bhhn0U9RA-110" target="wsURAHMhbF8bhhn0U9RA-138">
          <mxGeometry relative="1" as="geometry" />
        </mxCell>
        <mxCell id="wsURAHMhbF8bhhn0U9RA-110" value="&lt;font style=&quot;font-size: 16px;&quot;&gt;field == f_text&lt;/font&gt;" style="rhombus;whiteSpace=wrap;html=1;rounded=0;strokeColor=default;align=center;verticalAlign=middle;arcSize=50;fontFamily=Lucida Console;fontSize=12;fontColor=default;fillColor=default;" vertex="1" parent="1">
          <mxGeometry x="1000" y="1210" width="200" height="100" as="geometry" />
        </mxCell>
        <mxCell id="wsURAHMhbF8bhhn0U9RA-183" style="edgeStyle=orthogonalEdgeStyle;shape=connector;rounded=0;orthogonalLoop=1;jettySize=auto;html=1;exitX=1;exitY=0.5;exitDx=0;exitDy=0;strokeColor=default;align=center;verticalAlign=middle;fontFamily=Lucida Console;fontSize=12;fontColor=default;labelBackgroundColor=none;endArrow=none;endFill=0;" edge="1" parent="1" source="wsURAHMhbF8bhhn0U9RA-112">
          <mxGeometry relative="1" as="geometry">
            <mxPoint x="1450" y="1259.826086956522" as="targetPoint" />
          </mxGeometry>
        </mxCell>
        <mxCell id="wsURAHMhbF8bhhn0U9RA-112" value="&lt;font style=&quot;font-size: 13px;&quot;&gt;comp = compare_structs_ptr_text;&lt;/font&gt;" style="rounded=0;whiteSpace=wrap;html=1;strokeColor=default;align=center;verticalAlign=middle;arcSize=50;fontFamily=Lucida Console;fontSize=12;fontColor=default;fillColor=default;" vertex="1" parent="1">
          <mxGeometry x="1240" y="1210" width="200" height="100" as="geometry" />
        </mxCell>
        <mxCell id="wsURAHMhbF8bhhn0U9RA-167" style="edgeStyle=orthogonalEdgeStyle;shape=connector;rounded=0;orthogonalLoop=1;jettySize=auto;html=1;exitX=0.5;exitY=1;exitDx=0;exitDy=0;entryX=0.5;entryY=0;entryDx=0;entryDy=0;strokeColor=default;align=center;verticalAlign=middle;fontFamily=Lucida Console;fontSize=12;fontColor=default;labelBackgroundColor=none;endArrow=none;endFill=0;" edge="1" parent="1" source="wsURAHMhbF8bhhn0U9RA-138" target="wsURAHMhbF8bhhn0U9RA-139">
          <mxGeometry relative="1" as="geometry" />
        </mxCell>
        <mxCell id="wsURAHMhbF8bhhn0U9RA-138" value="&lt;font style=&quot;font-size: 17px;&quot;&gt;int diff = 1 - reversed * 2;&lt;/font&gt;" style="rounded=0;whiteSpace=wrap;html=1;strokeColor=default;align=center;verticalAlign=middle;arcSize=50;fontFamily=Lucida Console;fontSize=12;fontColor=default;labelBackgroundColor=none;fillColor=default;" vertex="1" parent="1">
          <mxGeometry x="1000" y="1340" width="200" height="100" as="geometry" />
        </mxCell>
        <mxCell id="wsURAHMhbF8bhhn0U9RA-168" style="edgeStyle=orthogonalEdgeStyle;shape=connector;rounded=0;orthogonalLoop=1;jettySize=auto;html=1;exitX=0.5;exitY=1;exitDx=0;exitDy=0;entryX=0.5;entryY=0;entryDx=0;entryDy=0;strokeColor=default;align=center;verticalAlign=middle;fontFamily=Lucida Console;fontSize=12;fontColor=default;labelBackgroundColor=none;endArrow=none;endFill=0;" edge="1" parent="1" source="wsURAHMhbF8bhhn0U9RA-139" target="wsURAHMhbF8bhhn0U9RA-140">
          <mxGeometry relative="1" as="geometry" />
        </mxCell>
        <mxCell id="wsURAHMhbF8bhhn0U9RA-171" style="edgeStyle=orthogonalEdgeStyle;shape=connector;rounded=0;orthogonalLoop=1;jettySize=auto;html=1;exitX=1;exitY=0.5;exitDx=0;exitDy=0;entryX=0;entryY=0.5;entryDx=0;entryDy=0;strokeColor=default;align=center;verticalAlign=middle;fontFamily=Lucida Console;fontSize=12;fontColor=default;labelBackgroundColor=none;endArrow=none;endFill=0;" edge="1" parent="1" source="wsURAHMhbF8bhhn0U9RA-139" target="wsURAHMhbF8bhhn0U9RA-160">
          <mxGeometry relative="1" as="geometry" />
        </mxCell>
        <mxCell id="wsURAHMhbF8bhhn0U9RA-139" value="&lt;font style=&quot;font-size: 18px;&quot;&gt;!flag&lt;/font&gt;" style="rhombus;whiteSpace=wrap;html=1;rounded=0;strokeColor=default;align=center;verticalAlign=middle;arcSize=50;fontFamily=Lucida Console;fontSize=12;fontColor=default;labelBackgroundColor=none;fillColor=default;" vertex="1" parent="1">
          <mxGeometry x="1000" y="1470" width="200" height="100" as="geometry" />
        </mxCell>
        <mxCell id="wsURAHMhbF8bhhn0U9RA-169" style="edgeStyle=orthogonalEdgeStyle;shape=connector;rounded=0;orthogonalLoop=1;jettySize=auto;html=1;exitX=0.5;exitY=1;exitDx=0;exitDy=0;entryX=0.5;entryY=0;entryDx=0;entryDy=0;strokeColor=default;align=center;verticalAlign=middle;fontFamily=Lucida Console;fontSize=12;fontColor=default;labelBackgroundColor=none;endArrow=none;endFill=0;" edge="1" parent="1" source="wsURAHMhbF8bhhn0U9RA-140" target="wsURAHMhbF8bhhn0U9RA-141">
          <mxGeometry relative="1" as="geometry" />
        </mxCell>
        <mxCell id="wsURAHMhbF8bhhn0U9RA-140" value="&lt;font style=&quot;font-size: 18px;&quot;&gt;flag = 1;&lt;/font&gt;" style="rounded=0;whiteSpace=wrap;html=1;strokeColor=default;align=center;verticalAlign=middle;arcSize=50;fontFamily=Lucida Console;fontSize=12;fontColor=default;labelBackgroundColor=none;fillColor=default;" vertex="1" parent="1">
          <mxGeometry x="1000" y="1600" width="200" height="100" as="geometry" />
        </mxCell>
        <mxCell id="wsURAHMhbF8bhhn0U9RA-145" style="edgeStyle=orthogonalEdgeStyle;shape=connector;rounded=0;orthogonalLoop=1;jettySize=auto;html=1;exitX=0.5;exitY=1;exitDx=0;exitDy=0;entryX=0.5;entryY=0;entryDx=0;entryDy=0;strokeColor=default;align=center;verticalAlign=middle;fontFamily=Lucida Console;fontSize=12;fontColor=default;labelBackgroundColor=none;endArrow=none;endFill=0;" edge="1" parent="1" source="wsURAHMhbF8bhhn0U9RA-141" target="wsURAHMhbF8bhhn0U9RA-142">
          <mxGeometry relative="1" as="geometry" />
        </mxCell>
        <mxCell id="wsURAHMhbF8bhhn0U9RA-159" style="edgeStyle=orthogonalEdgeStyle;shape=connector;rounded=0;orthogonalLoop=1;jettySize=auto;html=1;exitX=1;exitY=0.5;exitDx=0;exitDy=0;entryX=0.5;entryY=0;entryDx=0;entryDy=0;strokeColor=default;align=center;verticalAlign=middle;fontFamily=Lucida Console;fontSize=12;fontColor=default;labelBackgroundColor=none;endArrow=classic;endFill=1;" edge="1" parent="1" source="wsURAHMhbF8bhhn0U9RA-141" target="wsURAHMhbF8bhhn0U9RA-151">
          <mxGeometry relative="1" as="geometry">
            <Array as="points">
              <mxPoint x="1210" y="1780" />
              <mxPoint x="1210" y="1720" />
              <mxPoint x="1340" y="1720" />
            </Array>
          </mxGeometry>
        </mxCell>
        <mxCell id="wsURAHMhbF8bhhn0U9RA-141" value="&lt;font style=&quot;font-size: 18px;&quot;&gt;int i = 1;&lt;br&gt;i &amp;lt; size - 1;&lt;br&gt;i += 2&lt;/font&gt;" style="shape=hexagon;perimeter=hexagonPerimeter2;whiteSpace=wrap;html=1;fixedSize=1;rounded=0;strokeColor=default;align=center;verticalAlign=middle;arcSize=50;fontFamily=Lucida Console;fontSize=12;fontColor=default;labelBackgroundColor=none;fillColor=default;" vertex="1" parent="1">
          <mxGeometry x="1000" y="1730" width="200" height="100" as="geometry" />
        </mxCell>
        <mxCell id="wsURAHMhbF8bhhn0U9RA-146" style="edgeStyle=orthogonalEdgeStyle;shape=connector;rounded=0;orthogonalLoop=1;jettySize=auto;html=1;exitX=0.5;exitY=1;exitDx=0;exitDy=0;entryX=0.5;entryY=0;entryDx=0;entryDy=0;strokeColor=default;align=center;verticalAlign=middle;fontFamily=Lucida Console;fontSize=12;fontColor=default;labelBackgroundColor=none;endArrow=none;endFill=0;" edge="1" parent="1" source="wsURAHMhbF8bhhn0U9RA-142" target="wsURAHMhbF8bhhn0U9RA-143">
          <mxGeometry relative="1" as="geometry" />
        </mxCell>
        <mxCell id="wsURAHMhbF8bhhn0U9RA-149" style="edgeStyle=orthogonalEdgeStyle;shape=connector;rounded=0;orthogonalLoop=1;jettySize=auto;html=1;exitX=0;exitY=0.5;exitDx=0;exitDy=0;strokeColor=default;align=center;verticalAlign=middle;fontFamily=Lucida Console;fontSize=12;fontColor=default;labelBackgroundColor=none;endArrow=classic;endFill=1;" edge="1" parent="1" source="wsURAHMhbF8bhhn0U9RA-142">
          <mxGeometry relative="1" as="geometry">
            <mxPoint x="990" y="1909.9473684210525" as="targetPoint" />
          </mxGeometry>
        </mxCell>
        <mxCell id="wsURAHMhbF8bhhn0U9RA-142" value="(*comp)&lt;br&gt;(arr[i], arr[i + 1])&lt;br&gt;== diff" style="rhombus;whiteSpace=wrap;html=1;rounded=0;strokeColor=default;align=center;verticalAlign=middle;arcSize=50;fontFamily=Lucida Console;fontSize=12;fontColor=default;labelBackgroundColor=none;fillColor=default;" vertex="1" parent="1">
          <mxGeometry x="1000" y="1860" width="200" height="100" as="geometry" />
        </mxCell>
        <mxCell id="wsURAHMhbF8bhhn0U9RA-147" style="edgeStyle=orthogonalEdgeStyle;shape=connector;rounded=0;orthogonalLoop=1;jettySize=auto;html=1;exitX=0.5;exitY=1;exitDx=0;exitDy=0;entryX=0.5;entryY=0;entryDx=0;entryDy=0;strokeColor=default;align=center;verticalAlign=middle;fontFamily=Lucida Console;fontSize=12;fontColor=default;labelBackgroundColor=none;endArrow=none;endFill=0;" edge="1" parent="1" source="wsURAHMhbF8bhhn0U9RA-143" target="wsURAHMhbF8bhhn0U9RA-144">
          <mxGeometry relative="1" as="geometry" />
        </mxCell>
        <mxCell id="wsURAHMhbF8bhhn0U9RA-143" value="&lt;font style=&quot;font-size: 14px;&quot;&gt;swap_structs(arr + i, arr + i + 1);&lt;/font&gt;" style="shape=process;whiteSpace=wrap;html=1;backgroundOutline=1;rounded=0;strokeColor=default;align=center;verticalAlign=middle;arcSize=50;fontFamily=Lucida Console;fontSize=12;fontColor=default;labelBackgroundColor=none;fillColor=default;" vertex="1" parent="1">
          <mxGeometry x="1000" y="1990" width="200" height="100" as="geometry" />
        </mxCell>
        <mxCell id="wsURAHMhbF8bhhn0U9RA-148" style="edgeStyle=orthogonalEdgeStyle;shape=connector;rounded=0;orthogonalLoop=1;jettySize=auto;html=1;exitX=0;exitY=0.5;exitDx=0;exitDy=0;entryX=0;entryY=0.5;entryDx=0;entryDy=0;strokeColor=default;align=center;verticalAlign=middle;fontFamily=Lucida Console;fontSize=12;fontColor=default;labelBackgroundColor=none;endArrow=classic;endFill=1;" edge="1" parent="1" source="wsURAHMhbF8bhhn0U9RA-144" target="wsURAHMhbF8bhhn0U9RA-141">
          <mxGeometry relative="1" as="geometry">
            <Array as="points">
              <mxPoint x="990" y="2170" />
              <mxPoint x="990" y="1780" />
            </Array>
          </mxGeometry>
        </mxCell>
        <mxCell id="wsURAHMhbF8bhhn0U9RA-144" value="&lt;font style=&quot;font-size: 18px;&quot;&gt;flag = 0;&lt;/font&gt;" style="rounded=0;whiteSpace=wrap;html=1;strokeColor=default;align=center;verticalAlign=middle;arcSize=50;fontFamily=Lucida Console;fontSize=12;fontColor=default;labelBackgroundColor=none;fillColor=default;" vertex="1" parent="1">
          <mxGeometry x="1000" y="2120" width="200" height="100" as="geometry" />
        </mxCell>
        <mxCell id="wsURAHMhbF8bhhn0U9RA-150" style="edgeStyle=orthogonalEdgeStyle;shape=connector;rounded=0;orthogonalLoop=1;jettySize=auto;html=1;exitX=0.5;exitY=1;exitDx=0;exitDy=0;entryX=0.5;entryY=0;entryDx=0;entryDy=0;strokeColor=default;align=center;verticalAlign=middle;fontFamily=Lucida Console;fontSize=12;fontColor=default;labelBackgroundColor=none;endArrow=none;endFill=0;" edge="1" parent="1" source="wsURAHMhbF8bhhn0U9RA-151" target="wsURAHMhbF8bhhn0U9RA-154">
          <mxGeometry relative="1" as="geometry" />
        </mxCell>
        <mxCell id="wsURAHMhbF8bhhn0U9RA-170" style="edgeStyle=orthogonalEdgeStyle;shape=connector;rounded=0;orthogonalLoop=1;jettySize=auto;html=1;exitX=1;exitY=0.5;exitDx=0;exitDy=0;entryX=0;entryY=0.5;entryDx=0;entryDy=0;strokeColor=default;align=center;verticalAlign=middle;fontFamily=Lucida Console;fontSize=12;fontColor=default;labelBackgroundColor=none;endArrow=classic;endFill=1;" edge="1" parent="1" source="wsURAHMhbF8bhhn0U9RA-151" target="wsURAHMhbF8bhhn0U9RA-139">
          <mxGeometry relative="1" as="geometry">
            <Array as="points">
              <mxPoint x="1450" y="1780" />
              <mxPoint x="1450" y="2230" />
              <mxPoint x="980" y="2230" />
              <mxPoint x="980" y="1520" />
            </Array>
          </mxGeometry>
        </mxCell>
        <mxCell id="wsURAHMhbF8bhhn0U9RA-151" value="&lt;font style=&quot;font-size: 18px;&quot;&gt;int i = 0;&lt;br&gt;i &amp;lt; size - 1;&lt;br&gt;i += 2&lt;/font&gt;" style="shape=hexagon;perimeter=hexagonPerimeter2;whiteSpace=wrap;html=1;fixedSize=1;rounded=0;strokeColor=default;align=center;verticalAlign=middle;arcSize=50;fontFamily=Lucida Console;fontSize=12;fontColor=default;labelBackgroundColor=none;fillColor=default;" vertex="1" parent="1">
          <mxGeometry x="1240" y="1730" width="200" height="100" as="geometry" />
        </mxCell>
        <mxCell id="wsURAHMhbF8bhhn0U9RA-152" style="edgeStyle=orthogonalEdgeStyle;shape=connector;rounded=0;orthogonalLoop=1;jettySize=auto;html=1;exitX=0.5;exitY=1;exitDx=0;exitDy=0;entryX=0.5;entryY=0;entryDx=0;entryDy=0;strokeColor=default;align=center;verticalAlign=middle;fontFamily=Lucida Console;fontSize=12;fontColor=default;labelBackgroundColor=none;endArrow=none;endFill=0;" edge="1" parent="1" source="wsURAHMhbF8bhhn0U9RA-154" target="wsURAHMhbF8bhhn0U9RA-156">
          <mxGeometry relative="1" as="geometry" />
        </mxCell>
        <mxCell id="wsURAHMhbF8bhhn0U9RA-153" style="edgeStyle=orthogonalEdgeStyle;shape=connector;rounded=0;orthogonalLoop=1;jettySize=auto;html=1;exitX=0;exitY=0.5;exitDx=0;exitDy=0;strokeColor=default;align=center;verticalAlign=middle;fontFamily=Lucida Console;fontSize=12;fontColor=default;labelBackgroundColor=none;endArrow=classic;endFill=1;" edge="1" parent="1" source="wsURAHMhbF8bhhn0U9RA-154">
          <mxGeometry relative="1" as="geometry">
            <mxPoint x="1230" y="1909.9473684210525" as="targetPoint" />
          </mxGeometry>
        </mxCell>
        <mxCell id="wsURAHMhbF8bhhn0U9RA-154" value="(*comp)&lt;br&gt;(arr[i], arr[i + 1])&lt;br&gt;== diff" style="rhombus;whiteSpace=wrap;html=1;rounded=0;strokeColor=default;align=center;verticalAlign=middle;arcSize=50;fontFamily=Lucida Console;fontSize=12;fontColor=default;labelBackgroundColor=none;fillColor=default;" vertex="1" parent="1">
          <mxGeometry x="1240" y="1860" width="200" height="100" as="geometry" />
        </mxCell>
        <mxCell id="wsURAHMhbF8bhhn0U9RA-155" style="edgeStyle=orthogonalEdgeStyle;shape=connector;rounded=0;orthogonalLoop=1;jettySize=auto;html=1;exitX=0.5;exitY=1;exitDx=0;exitDy=0;entryX=0.5;entryY=0;entryDx=0;entryDy=0;strokeColor=default;align=center;verticalAlign=middle;fontFamily=Lucida Console;fontSize=12;fontColor=default;labelBackgroundColor=none;endArrow=none;endFill=0;" edge="1" parent="1" source="wsURAHMhbF8bhhn0U9RA-156" target="wsURAHMhbF8bhhn0U9RA-158">
          <mxGeometry relative="1" as="geometry" />
        </mxCell>
        <mxCell id="wsURAHMhbF8bhhn0U9RA-156" value="&lt;font style=&quot;font-size: 14px;&quot;&gt;swap_structs(arr + i, arr + i + 1);&lt;/font&gt;" style="shape=process;whiteSpace=wrap;html=1;backgroundOutline=1;rounded=0;strokeColor=default;align=center;verticalAlign=middle;arcSize=50;fontFamily=Lucida Console;fontSize=12;fontColor=default;labelBackgroundColor=none;fillColor=default;" vertex="1" parent="1">
          <mxGeometry x="1240" y="1990" width="200" height="100" as="geometry" />
        </mxCell>
        <mxCell id="wsURAHMhbF8bhhn0U9RA-157" style="edgeStyle=orthogonalEdgeStyle;shape=connector;rounded=0;orthogonalLoop=1;jettySize=auto;html=1;exitX=0;exitY=0.5;exitDx=0;exitDy=0;entryX=0;entryY=0.5;entryDx=0;entryDy=0;strokeColor=default;align=center;verticalAlign=middle;fontFamily=Lucida Console;fontSize=12;fontColor=default;labelBackgroundColor=none;endArrow=classic;endFill=1;" edge="1" parent="1" source="wsURAHMhbF8bhhn0U9RA-158" target="wsURAHMhbF8bhhn0U9RA-151">
          <mxGeometry relative="1" as="geometry">
            <Array as="points">
              <mxPoint x="1230" y="2170" />
              <mxPoint x="1230" y="1780" />
            </Array>
          </mxGeometry>
        </mxCell>
        <mxCell id="wsURAHMhbF8bhhn0U9RA-158" value="&lt;font style=&quot;font-size: 18px;&quot;&gt;flag = 0;&lt;/font&gt;" style="rounded=0;whiteSpace=wrap;html=1;strokeColor=default;align=center;verticalAlign=middle;arcSize=50;fontFamily=Lucida Console;fontSize=12;fontColor=default;labelBackgroundColor=none;fillColor=default;" vertex="1" parent="1">
          <mxGeometry x="1240" y="2120" width="200" height="100" as="geometry" />
        </mxCell>
        <mxCell id="wsURAHMhbF8bhhn0U9RA-160" value="&lt;font style=&quot;font-size: 18px;&quot;&gt;Конец&lt;/font&gt;" style="rounded=1;whiteSpace=wrap;html=1;strokeColor=default;align=center;verticalAlign=middle;arcSize=50;fontFamily=Lucida Console;fontSize=12;fontColor=default;labelBackgroundColor=none;fillColor=default;" vertex="1" parent="1">
          <mxGeometry x="1240" y="1470" width="200" height="100" as="geometry" />
        </mxCell>
        <mxCell id="wsURAHMhbF8bhhn0U9RA-212" style="edgeStyle=orthogonalEdgeStyle;shape=connector;rounded=0;orthogonalLoop=1;jettySize=auto;html=1;exitX=0.5;exitY=1;exitDx=0;exitDy=0;entryX=0.5;entryY=0;entryDx=0;entryDy=0;strokeColor=default;align=center;verticalAlign=middle;fontFamily=Lucida Console;fontSize=12;fontColor=default;labelBackgroundColor=none;endArrow=none;endFill=0;" edge="1" parent="1" source="wsURAHMhbF8bhhn0U9RA-172" target="wsURAHMhbF8bhhn0U9RA-174">
          <mxGeometry relative="1" as="geometry" />
        </mxCell>
        <mxCell id="wsURAHMhbF8bhhn0U9RA-172" value="&lt;font style=&quot;font-size: 15px;&quot;&gt;void shell_sort(Data *arr, int size, Field field, int reversed)&lt;/font&gt;" style="rounded=1;whiteSpace=wrap;html=1;strokeColor=default;align=center;verticalAlign=middle;arcSize=50;fontFamily=Lucida Console;fontSize=12;fontColor=default;labelBackgroundColor=none;fillColor=default;" vertex="1" parent="1">
          <mxGeometry x="1720" y="560" width="200" height="100" as="geometry" />
        </mxCell>
        <mxCell id="wsURAHMhbF8bhhn0U9RA-173" style="edgeStyle=orthogonalEdgeStyle;shape=connector;rounded=0;orthogonalLoop=1;jettySize=auto;html=1;exitX=1;exitY=0.5;exitDx=0;exitDy=0;entryX=0;entryY=0.5;entryDx=0;entryDy=0;strokeColor=default;align=center;verticalAlign=middle;fontFamily=Lucida Console;fontSize=12;fontColor=default;labelBackgroundColor=none;endArrow=none;endFill=0;" edge="1" parent="1" source="wsURAHMhbF8bhhn0U9RA-174" target="wsURAHMhbF8bhhn0U9RA-175">
          <mxGeometry relative="1" as="geometry" />
        </mxCell>
        <mxCell id="wsURAHMhbF8bhhn0U9RA-213" style="edgeStyle=orthogonalEdgeStyle;shape=connector;rounded=0;orthogonalLoop=1;jettySize=auto;html=1;exitX=0.5;exitY=1;exitDx=0;exitDy=0;entryX=0.5;entryY=0;entryDx=0;entryDy=0;strokeColor=default;align=center;verticalAlign=middle;fontFamily=Lucida Console;fontSize=12;fontColor=default;labelBackgroundColor=none;endArrow=none;endFill=0;" edge="1" parent="1" source="wsURAHMhbF8bhhn0U9RA-174" target="wsURAHMhbF8bhhn0U9RA-176">
          <mxGeometry relative="1" as="geometry" />
        </mxCell>
        <mxCell id="wsURAHMhbF8bhhn0U9RA-174" value="arr == NULL ||&lt;br&gt;&amp;nbsp;size == 0" style="rhombus;whiteSpace=wrap;html=1;rounded=0;strokeColor=default;align=center;verticalAlign=middle;arcSize=50;fontFamily=Lucida Console;fontSize=12;fontColor=default;labelBackgroundColor=none;fillColor=default;" vertex="1" parent="1">
          <mxGeometry x="1720" y="690" width="200" height="100" as="geometry" />
        </mxCell>
        <mxCell id="wsURAHMhbF8bhhn0U9RA-175" value="&lt;font style=&quot;font-size: 18px;&quot;&gt;Конец&lt;/font&gt;" style="rounded=1;whiteSpace=wrap;html=1;strokeColor=default;align=center;verticalAlign=middle;arcSize=50;fontFamily=Lucida Console;fontSize=12;fontColor=default;labelBackgroundColor=none;fillColor=default;" vertex="1" parent="1">
          <mxGeometry x="1960" y="690" width="200" height="100" as="geometry" />
        </mxCell>
        <mxCell id="wsURAHMhbF8bhhn0U9RA-214" style="edgeStyle=orthogonalEdgeStyle;shape=connector;rounded=0;orthogonalLoop=1;jettySize=auto;html=1;exitX=0.5;exitY=1;exitDx=0;exitDy=0;entryX=0.5;entryY=0;entryDx=0;entryDy=0;strokeColor=default;align=center;verticalAlign=middle;fontFamily=Lucida Console;fontSize=12;fontColor=default;labelBackgroundColor=none;endArrow=none;endFill=0;" edge="1" parent="1" source="wsURAHMhbF8bhhn0U9RA-176" target="wsURAHMhbF8bhhn0U9RA-177">
          <mxGeometry relative="1" as="geometry" />
        </mxCell>
        <mxCell id="wsURAHMhbF8bhhn0U9RA-176" value="&lt;font&gt;static const int steps[] = {1, 4, 10, 23, 57, 132, 301, 701, 1750};&lt;/font&gt;" style="rounded=0;whiteSpace=wrap;html=1;strokeColor=default;align=center;verticalAlign=middle;arcSize=50;fontFamily=Lucida Console;fontSize=12;fontColor=default;labelBackgroundColor=none;fillColor=default;" vertex="1" parent="1">
          <mxGeometry x="1720" y="820" width="200" height="100" as="geometry" />
        </mxCell>
        <mxCell id="wsURAHMhbF8bhhn0U9RA-215" style="edgeStyle=orthogonalEdgeStyle;shape=connector;rounded=0;orthogonalLoop=1;jettySize=auto;html=1;exitX=0.5;exitY=1;exitDx=0;exitDy=0;entryX=0.5;entryY=0;entryDx=0;entryDy=0;strokeColor=default;align=center;verticalAlign=middle;fontFamily=Lucida Console;fontSize=12;fontColor=default;labelBackgroundColor=none;endArrow=none;endFill=0;" edge="1" parent="1" source="wsURAHMhbF8bhhn0U9RA-177" target="wsURAHMhbF8bhhn0U9RA-178">
          <mxGeometry relative="1" as="geometry" />
        </mxCell>
        <mxCell id="wsURAHMhbF8bhhn0U9RA-177" value="int (*comp)(Data, Data), first_step_ind, step, diff = 1 - reversed * 2;" style="rounded=0;whiteSpace=wrap;html=1;strokeColor=default;align=center;verticalAlign=middle;arcSize=50;fontFamily=Lucida Console;fontSize=12;fontColor=default;labelBackgroundColor=none;fillColor=default;" vertex="1" parent="1">
          <mxGeometry x="1720" y="950" width="200" height="100" as="geometry" />
        </mxCell>
        <mxCell id="wsURAHMhbF8bhhn0U9RA-216" style="edgeStyle=orthogonalEdgeStyle;shape=connector;rounded=0;orthogonalLoop=1;jettySize=auto;html=1;exitX=0.5;exitY=1;exitDx=0;exitDy=0;entryX=0.5;entryY=0;entryDx=0;entryDy=0;strokeColor=default;align=center;verticalAlign=middle;fontFamily=Lucida Console;fontSize=12;fontColor=default;labelBackgroundColor=none;endArrow=none;endFill=0;" edge="1" parent="1" source="wsURAHMhbF8bhhn0U9RA-178" target="wsURAHMhbF8bhhn0U9RA-179">
          <mxGeometry relative="1" as="geometry" />
        </mxCell>
        <mxCell id="wsURAHMhbF8bhhn0U9RA-222" style="edgeStyle=orthogonalEdgeStyle;shape=connector;rounded=0;orthogonalLoop=1;jettySize=auto;html=1;exitX=1;exitY=0.5;exitDx=0;exitDy=0;entryX=0;entryY=0.5;entryDx=0;entryDy=0;strokeColor=default;align=center;verticalAlign=middle;fontFamily=Lucida Console;fontSize=12;fontColor=default;labelBackgroundColor=none;endArrow=none;endFill=0;" edge="1" parent="1" source="wsURAHMhbF8bhhn0U9RA-178" target="wsURAHMhbF8bhhn0U9RA-186">
          <mxGeometry relative="1" as="geometry" />
        </mxCell>
        <mxCell id="wsURAHMhbF8bhhn0U9RA-178" value="&lt;font style=&quot;font-size: 18px;&quot;&gt;int i = 8;&lt;br&gt;i &amp;gt;= 0;&lt;br&gt;i--&lt;/font&gt;" style="shape=hexagon;perimeter=hexagonPerimeter2;whiteSpace=wrap;html=1;fixedSize=1;rounded=0;strokeColor=default;align=center;verticalAlign=middle;arcSize=50;fontFamily=Lucida Console;fontSize=12;fontColor=default;labelBackgroundColor=none;fillColor=default;" vertex="1" parent="1">
          <mxGeometry x="1720" y="1080" width="200" height="100" as="geometry" />
        </mxCell>
        <mxCell id="wsURAHMhbF8bhhn0U9RA-217" style="edgeStyle=orthogonalEdgeStyle;shape=connector;rounded=0;orthogonalLoop=1;jettySize=auto;html=1;exitX=0.5;exitY=1;exitDx=0;exitDy=0;entryX=0.5;entryY=0;entryDx=0;entryDy=0;strokeColor=default;align=center;verticalAlign=middle;fontFamily=Lucida Console;fontSize=12;fontColor=default;labelBackgroundColor=none;endArrow=none;endFill=0;" edge="1" parent="1" source="wsURAHMhbF8bhhn0U9RA-179" target="wsURAHMhbF8bhhn0U9RA-180">
          <mxGeometry relative="1" as="geometry" />
        </mxCell>
        <mxCell id="wsURAHMhbF8bhhn0U9RA-218" style="edgeStyle=orthogonalEdgeStyle;shape=connector;rounded=0;orthogonalLoop=1;jettySize=auto;html=1;exitX=0;exitY=0.5;exitDx=0;exitDy=0;entryX=0;entryY=0.5;entryDx=0;entryDy=0;strokeColor=default;align=center;verticalAlign=middle;fontFamily=Lucida Console;fontSize=12;fontColor=default;labelBackgroundColor=none;endArrow=none;endFill=0;" edge="1" parent="1" source="wsURAHMhbF8bhhn0U9RA-179" target="wsURAHMhbF8bhhn0U9RA-178">
          <mxGeometry relative="1" as="geometry">
            <Array as="points">
              <mxPoint x="1710" y="1260" />
              <mxPoint x="1710" y="1130" />
            </Array>
          </mxGeometry>
        </mxCell>
        <mxCell id="wsURAHMhbF8bhhn0U9RA-179" value="&lt;font style=&quot;font-size: 16px;&quot;&gt;steps[i] &amp;lt; size&lt;/font&gt;" style="rhombus;whiteSpace=wrap;html=1;rounded=0;strokeColor=default;align=center;verticalAlign=middle;arcSize=50;fontFamily=Lucida Console;fontSize=12;fontColor=default;labelBackgroundColor=none;fillColor=default;" vertex="1" parent="1">
          <mxGeometry x="1720" y="1210" width="200" height="100" as="geometry" />
        </mxCell>
        <mxCell id="wsURAHMhbF8bhhn0U9RA-223" style="edgeStyle=orthogonalEdgeStyle;shape=connector;rounded=0;orthogonalLoop=1;jettySize=auto;html=1;exitX=1;exitY=0.5;exitDx=0;exitDy=0;strokeColor=default;align=center;verticalAlign=middle;fontFamily=Lucida Console;fontSize=12;fontColor=default;labelBackgroundColor=none;endArrow=classic;endFill=1;" edge="1" parent="1" source="wsURAHMhbF8bhhn0U9RA-180">
          <mxGeometry relative="1" as="geometry">
            <mxPoint x="1940" y="1130" as="targetPoint" />
          </mxGeometry>
        </mxCell>
        <mxCell id="wsURAHMhbF8bhhn0U9RA-180" value="&lt;font style=&quot;font-size: 17px;&quot;&gt;first_step_ind = i;&lt;/font&gt;" style="rounded=0;whiteSpace=wrap;html=1;strokeColor=default;align=center;verticalAlign=middle;arcSize=50;fontFamily=Lucida Console;fontSize=12;fontColor=default;labelBackgroundColor=none;fillColor=default;" vertex="1" parent="1">
          <mxGeometry x="1720" y="1340" width="200" height="100" as="geometry" />
        </mxCell>
        <mxCell id="wsURAHMhbF8bhhn0U9RA-184" style="edgeStyle=orthogonalEdgeStyle;rounded=0;orthogonalLoop=1;jettySize=auto;html=1;exitX=1;exitY=0.5;exitDx=0;exitDy=0;entryX=0;entryY=0.5;entryDx=0;entryDy=0;fontFamily=Lucida Console;fontSize=12;fontColor=default;endArrow=none;endFill=0;" edge="1" parent="1" source="wsURAHMhbF8bhhn0U9RA-186">
          <mxGeometry relative="1" as="geometry">
            <mxPoint x="2200" y="1130" as="targetPoint" />
          </mxGeometry>
        </mxCell>
        <mxCell id="wsURAHMhbF8bhhn0U9RA-185" style="edgeStyle=orthogonalEdgeStyle;rounded=0;orthogonalLoop=1;jettySize=auto;html=1;exitX=0.5;exitY=1;exitDx=0;exitDy=0;entryX=0.5;entryY=0;entryDx=0;entryDy=0;fontFamily=Lucida Console;fontSize=12;fontColor=default;endArrow=none;endFill=0;" edge="1" parent="1" source="wsURAHMhbF8bhhn0U9RA-186" target="wsURAHMhbF8bhhn0U9RA-191">
          <mxGeometry relative="1" as="geometry" />
        </mxCell>
        <mxCell id="wsURAHMhbF8bhhn0U9RA-186" value="&lt;font style=&quot;font-size: 16px;&quot;&gt;field == f_id&lt;/font&gt;" style="rhombus;whiteSpace=wrap;html=1;rounded=0;strokeColor=default;align=center;verticalAlign=middle;arcSize=50;fontFamily=Lucida Console;fontSize=12;fontColor=default;fillColor=default;" vertex="1" parent="1">
          <mxGeometry x="1960" y="1080" width="200" height="100" as="geometry" />
        </mxCell>
        <mxCell id="wsURAHMhbF8bhhn0U9RA-219" style="edgeStyle=orthogonalEdgeStyle;shape=connector;rounded=0;orthogonalLoop=1;jettySize=auto;html=1;exitX=1;exitY=0.5;exitDx=0;exitDy=0;strokeColor=default;align=center;verticalAlign=middle;fontFamily=Lucida Console;fontSize=12;fontColor=default;labelBackgroundColor=none;endArrow=classic;endFill=1;entryX=0.5;entryY=0;entryDx=0;entryDy=0;" edge="1" parent="1" source="wsURAHMhbF8bhhn0U9RA-188" target="wsURAHMhbF8bhhn0U9RA-198">
          <mxGeometry relative="1" as="geometry">
            <mxPoint x="1820" y="1450" as="targetPoint" />
            <Array as="points">
              <mxPoint x="2420" y="1130" />
              <mxPoint x="2420" y="1460" />
              <mxPoint x="1820" y="1460" />
            </Array>
          </mxGeometry>
        </mxCell>
        <mxCell id="wsURAHMhbF8bhhn0U9RA-188" value="&lt;font style=&quot;font-size: 14px;&quot;&gt;comp = compare_structs_ptr_id;&lt;/font&gt;" style="rounded=0;whiteSpace=wrap;html=1;strokeColor=default;align=center;verticalAlign=middle;arcSize=50;fontFamily=Lucida Console;fontSize=12;fontColor=default;fillColor=default;" vertex="1" parent="1">
          <mxGeometry x="2200" y="1080" width="200" height="100" as="geometry" />
        </mxCell>
        <mxCell id="wsURAHMhbF8bhhn0U9RA-189" style="edgeStyle=orthogonalEdgeStyle;rounded=0;orthogonalLoop=1;jettySize=auto;html=1;exitX=1;exitY=0.5;exitDx=0;exitDy=0;entryX=0;entryY=0.5;entryDx=0;entryDy=0;fontFamily=Lucida Console;fontSize=12;fontColor=default;endArrow=none;endFill=0;" edge="1" parent="1" source="wsURAHMhbF8bhhn0U9RA-191">
          <mxGeometry relative="1" as="geometry">
            <mxPoint x="2200" y="1260" as="targetPoint" />
          </mxGeometry>
        </mxCell>
        <mxCell id="wsURAHMhbF8bhhn0U9RA-190" style="edgeStyle=orthogonalEdgeStyle;rounded=0;orthogonalLoop=1;jettySize=auto;html=1;exitX=0.5;exitY=1;exitDx=0;exitDy=0;entryX=0.5;entryY=0;entryDx=0;entryDy=0;fontFamily=Lucida Console;fontSize=12;fontColor=default;endArrow=none;endFill=0;" edge="1" parent="1" source="wsURAHMhbF8bhhn0U9RA-191" target="wsURAHMhbF8bhhn0U9RA-195">
          <mxGeometry relative="1" as="geometry" />
        </mxCell>
        <mxCell id="wsURAHMhbF8bhhn0U9RA-191" value="&lt;font style=&quot;font-size: 16px;&quot;&gt;field == f_imp&lt;/font&gt;" style="rhombus;whiteSpace=wrap;html=1;rounded=0;strokeColor=default;align=center;verticalAlign=middle;arcSize=50;fontFamily=Lucida Console;fontSize=12;fontColor=default;fillColor=default;" vertex="1" parent="1">
          <mxGeometry x="1960" y="1210" width="200" height="100" as="geometry" />
        </mxCell>
        <mxCell id="wsURAHMhbF8bhhn0U9RA-220" style="edgeStyle=orthogonalEdgeStyle;shape=connector;rounded=0;orthogonalLoop=1;jettySize=auto;html=1;exitX=1;exitY=0.5;exitDx=0;exitDy=0;strokeColor=default;align=center;verticalAlign=middle;fontFamily=Lucida Console;fontSize=12;fontColor=default;labelBackgroundColor=none;endArrow=none;endFill=0;" edge="1" parent="1" source="wsURAHMhbF8bhhn0U9RA-193">
          <mxGeometry relative="1" as="geometry">
            <mxPoint x="2420" y="1259.5294117647059" as="targetPoint" />
          </mxGeometry>
        </mxCell>
        <mxCell id="wsURAHMhbF8bhhn0U9RA-193" value="&lt;font style=&quot;font-size: 13px;&quot;&gt;comp = compare_structs_ptr_imp;&lt;/font&gt;" style="rounded=0;whiteSpace=wrap;html=1;strokeColor=default;align=center;verticalAlign=middle;arcSize=50;fontFamily=Lucida Console;fontSize=12;fontColor=default;fillColor=default;" vertex="1" parent="1">
          <mxGeometry x="2200" y="1210" width="200" height="100" as="geometry" />
        </mxCell>
        <mxCell id="wsURAHMhbF8bhhn0U9RA-194" style="edgeStyle=orthogonalEdgeStyle;rounded=0;orthogonalLoop=1;jettySize=auto;html=1;exitX=1;exitY=0.5;exitDx=0;exitDy=0;entryX=0;entryY=0.5;entryDx=0;entryDy=0;fontFamily=Lucida Console;fontSize=12;fontColor=default;endArrow=none;endFill=0;" edge="1" parent="1" source="wsURAHMhbF8bhhn0U9RA-195">
          <mxGeometry relative="1" as="geometry">
            <mxPoint x="2200" y="1390" as="targetPoint" />
          </mxGeometry>
        </mxCell>
        <mxCell id="wsURAHMhbF8bhhn0U9RA-195" value="&lt;font style=&quot;font-size: 16px;&quot;&gt;field == f_text&lt;/font&gt;" style="rhombus;whiteSpace=wrap;html=1;rounded=0;strokeColor=default;align=center;verticalAlign=middle;arcSize=50;fontFamily=Lucida Console;fontSize=12;fontColor=default;fillColor=default;" vertex="1" parent="1">
          <mxGeometry x="1960" y="1340" width="200" height="100" as="geometry" />
        </mxCell>
        <mxCell id="wsURAHMhbF8bhhn0U9RA-221" style="edgeStyle=orthogonalEdgeStyle;shape=connector;rounded=0;orthogonalLoop=1;jettySize=auto;html=1;exitX=1;exitY=0.5;exitDx=0;exitDy=0;strokeColor=default;align=center;verticalAlign=middle;fontFamily=Lucida Console;fontSize=12;fontColor=default;labelBackgroundColor=none;endArrow=none;endFill=0;" edge="1" parent="1" source="wsURAHMhbF8bhhn0U9RA-197">
          <mxGeometry relative="1" as="geometry">
            <mxPoint x="2420" y="1390.1176470588234" as="targetPoint" />
          </mxGeometry>
        </mxCell>
        <mxCell id="wsURAHMhbF8bhhn0U9RA-197" value="&lt;font style=&quot;font-size: 13px;&quot;&gt;comp = compare_structs_ptr_text;&lt;/font&gt;" style="rounded=0;whiteSpace=wrap;html=1;strokeColor=default;align=center;verticalAlign=middle;arcSize=50;fontFamily=Lucida Console;fontSize=12;fontColor=default;fillColor=default;" vertex="1" parent="1">
          <mxGeometry x="2200" y="1340" width="200" height="100" as="geometry" />
        </mxCell>
        <mxCell id="wsURAHMhbF8bhhn0U9RA-207" style="edgeStyle=orthogonalEdgeStyle;shape=connector;rounded=0;orthogonalLoop=1;jettySize=auto;html=1;exitX=0.5;exitY=1;exitDx=0;exitDy=0;entryX=0.5;entryY=0;entryDx=0;entryDy=0;strokeColor=default;align=center;verticalAlign=middle;fontFamily=Lucida Console;fontSize=12;fontColor=default;labelBackgroundColor=none;endArrow=none;endFill=0;" edge="1" parent="1" source="wsURAHMhbF8bhhn0U9RA-198" target="wsURAHMhbF8bhhn0U9RA-199">
          <mxGeometry relative="1" as="geometry" />
        </mxCell>
        <mxCell id="wsURAHMhbF8bhhn0U9RA-211" style="edgeStyle=orthogonalEdgeStyle;shape=connector;rounded=0;orthogonalLoop=1;jettySize=auto;html=1;exitX=1;exitY=0.5;exitDx=0;exitDy=0;entryX=0;entryY=0.5;entryDx=0;entryDy=0;strokeColor=default;align=center;verticalAlign=middle;fontFamily=Lucida Console;fontSize=12;fontColor=default;labelBackgroundColor=none;endArrow=none;endFill=0;" edge="1" parent="1" source="wsURAHMhbF8bhhn0U9RA-198" target="wsURAHMhbF8bhhn0U9RA-210">
          <mxGeometry relative="1" as="geometry" />
        </mxCell>
        <mxCell id="wsURAHMhbF8bhhn0U9RA-198" value="int step_ind = first_step_ind;&lt;br&gt;step_ind &amp;gt;= 0;&lt;br&gt;step_ind--" style="shape=hexagon;perimeter=hexagonPerimeter2;whiteSpace=wrap;html=1;fixedSize=1;rounded=0;strokeColor=default;align=center;verticalAlign=middle;arcSize=50;fontFamily=Lucida Console;fontSize=12;fontColor=default;labelBackgroundColor=none;fillColor=default;" vertex="1" parent="1">
          <mxGeometry x="1720" y="1470" width="200" height="100" as="geometry" />
        </mxCell>
        <mxCell id="wsURAHMhbF8bhhn0U9RA-206" style="edgeStyle=orthogonalEdgeStyle;shape=connector;rounded=0;orthogonalLoop=1;jettySize=auto;html=1;exitX=0.5;exitY=1;exitDx=0;exitDy=0;entryX=0.5;entryY=0;entryDx=0;entryDy=0;strokeColor=default;align=center;verticalAlign=middle;fontFamily=Lucida Console;fontSize=12;fontColor=default;labelBackgroundColor=none;endArrow=none;endFill=0;" edge="1" parent="1" source="wsURAHMhbF8bhhn0U9RA-199" target="wsURAHMhbF8bhhn0U9RA-200">
          <mxGeometry relative="1" as="geometry" />
        </mxCell>
        <mxCell id="wsURAHMhbF8bhhn0U9RA-199" value="&lt;font style=&quot;font-size: 14px;&quot;&gt;step = steps[step_ind];&lt;/font&gt;" style="rounded=0;whiteSpace=wrap;html=1;strokeColor=default;align=center;verticalAlign=middle;arcSize=50;fontFamily=Lucida Console;fontSize=12;fontColor=default;labelBackgroundColor=none;fillColor=default;" vertex="1" parent="1">
          <mxGeometry x="1720" y="1600" width="200" height="100" as="geometry" />
        </mxCell>
        <mxCell id="wsURAHMhbF8bhhn0U9RA-209" style="edgeStyle=orthogonalEdgeStyle;shape=connector;rounded=0;orthogonalLoop=1;jettySize=auto;html=1;exitX=1;exitY=0.5;exitDx=0;exitDy=0;entryX=0;entryY=0.5;entryDx=0;entryDy=0;strokeColor=default;align=center;verticalAlign=middle;fontFamily=Lucida Console;fontSize=12;fontColor=default;labelBackgroundColor=none;endArrow=classic;endFill=1;" edge="1" parent="1" source="wsURAHMhbF8bhhn0U9RA-200" target="wsURAHMhbF8bhhn0U9RA-198">
          <mxGeometry relative="1" as="geometry">
            <Array as="points">
              <mxPoint x="1940" y="1780" />
              <mxPoint x="1940" y="2110" />
              <mxPoint x="1690" y="2110" />
              <mxPoint x="1690" y="1520" />
            </Array>
          </mxGeometry>
        </mxCell>
        <mxCell id="wsURAHMhbF8bhhn0U9RA-200" value="&lt;font style=&quot;font-size: 18px;&quot;&gt;int i = step;&lt;br&gt;i &amp;lt; size;&lt;br&gt;i++&lt;/font&gt;" style="shape=hexagon;perimeter=hexagonPerimeter2;whiteSpace=wrap;html=1;fixedSize=1;rounded=0;strokeColor=default;align=center;verticalAlign=middle;arcSize=50;fontFamily=Lucida Console;fontSize=12;fontColor=default;labelBackgroundColor=none;fillColor=default;" vertex="1" parent="1">
          <mxGeometry x="1720" y="1730" width="200" height="100" as="geometry" />
        </mxCell>
        <mxCell id="wsURAHMhbF8bhhn0U9RA-203" style="edgeStyle=orthogonalEdgeStyle;shape=connector;rounded=0;orthogonalLoop=1;jettySize=auto;html=1;exitX=0.5;exitY=1;exitDx=0;exitDy=0;entryX=0.5;entryY=0;entryDx=0;entryDy=0;strokeColor=default;align=center;verticalAlign=middle;fontFamily=Lucida Console;fontSize=12;fontColor=default;labelBackgroundColor=none;endArrow=none;endFill=0;" edge="1" parent="1" source="wsURAHMhbF8bhhn0U9RA-201" target="wsURAHMhbF8bhhn0U9RA-202">
          <mxGeometry relative="1" as="geometry" />
        </mxCell>
        <mxCell id="wsURAHMhbF8bhhn0U9RA-205" style="edgeStyle=orthogonalEdgeStyle;shape=connector;rounded=0;orthogonalLoop=1;jettySize=auto;html=1;exitX=1;exitY=0.5;exitDx=0;exitDy=0;entryX=0;entryY=0.5;entryDx=0;entryDy=0;strokeColor=default;align=center;verticalAlign=middle;fontFamily=Lucida Console;fontSize=12;fontColor=default;labelBackgroundColor=none;endArrow=classic;endFill=1;" edge="1" parent="1" source="wsURAHMhbF8bhhn0U9RA-201" target="wsURAHMhbF8bhhn0U9RA-200">
          <mxGeometry relative="1" as="geometry">
            <Array as="points">
              <mxPoint x="1930" y="1910" />
              <mxPoint x="1930" y="2100" />
              <mxPoint x="1700" y="2100" />
              <mxPoint x="1700" y="1780" />
            </Array>
          </mxGeometry>
        </mxCell>
        <mxCell id="wsURAHMhbF8bhhn0U9RA-201" value="int j = i - step;&lt;br&gt;j &amp;gt;= 0 &amp;amp;&amp;amp; diff * (*comp)(arr[j], arr[j + step]) &amp;gt;= 0;&lt;br&gt;j -= step" style="shape=hexagon;perimeter=hexagonPerimeter2;whiteSpace=wrap;html=1;fixedSize=1;rounded=0;strokeColor=default;align=center;verticalAlign=middle;arcSize=50;fontFamily=Lucida Console;fontSize=12;fontColor=default;labelBackgroundColor=none;fillColor=default;" vertex="1" parent="1">
          <mxGeometry x="1720" y="1860" width="200" height="100" as="geometry" />
        </mxCell>
        <mxCell id="wsURAHMhbF8bhhn0U9RA-204" style="edgeStyle=orthogonalEdgeStyle;shape=connector;rounded=0;orthogonalLoop=1;jettySize=auto;html=1;exitX=0;exitY=0.5;exitDx=0;exitDy=0;entryX=0;entryY=0.5;entryDx=0;entryDy=0;strokeColor=default;align=center;verticalAlign=middle;fontFamily=Lucida Console;fontSize=12;fontColor=default;labelBackgroundColor=none;endArrow=classic;endFill=1;" edge="1" parent="1" source="wsURAHMhbF8bhhn0U9RA-202" target="wsURAHMhbF8bhhn0U9RA-201">
          <mxGeometry relative="1" as="geometry">
            <Array as="points">
              <mxPoint x="1710" y="2040" />
              <mxPoint x="1710" y="1910" />
            </Array>
          </mxGeometry>
        </mxCell>
        <mxCell id="wsURAHMhbF8bhhn0U9RA-202" value="&lt;font style=&quot;font-size: 13px;&quot;&gt;swap_structs(arr + j, arr + j + step);&lt;/font&gt;" style="shape=process;whiteSpace=wrap;html=1;backgroundOutline=1;rounded=0;strokeColor=default;align=center;verticalAlign=middle;arcSize=50;fontFamily=Lucida Console;fontSize=12;fontColor=default;labelBackgroundColor=none;fillColor=default;" vertex="1" parent="1">
          <mxGeometry x="1720" y="1990" width="200" height="100" as="geometry" />
        </mxCell>
        <mxCell id="wsURAHMhbF8bhhn0U9RA-210" value="&lt;font style=&quot;font-size: 18px;&quot;&gt;Конец&lt;/font&gt;" style="rounded=1;whiteSpace=wrap;html=1;strokeColor=default;align=center;verticalAlign=middle;arcSize=50;fontFamily=Lucida Console;fontSize=12;fontColor=default;labelBackgroundColor=none;fillColor=default;" vertex="1" parent="1">
          <mxGeometry x="1960" y="1470" width="200" height="100" as="geometry" />
        </mxCell>
        <mxCell id="wsURAHMhbF8bhhn0U9RA-224" value="да" style="text;html=1;align=center;verticalAlign=middle;resizable=0;points=[];autosize=1;strokeColor=none;fillColor=none;fontFamily=Lucida Console;fontSize=12;fontColor=default;labelBackgroundColor=none;" vertex="1" parent="1">
          <mxGeometry x="230" y="200" width="40" height="30" as="geometry" />
        </mxCell>
        <mxCell id="wsURAHMhbF8bhhn0U9RA-225" value="нет" style="text;html=1;align=center;verticalAlign=middle;resizable=0;points=[];autosize=1;strokeColor=none;fillColor=none;fontFamily=Lucida Console;fontSize=12;fontColor=default;labelBackgroundColor=none;" vertex="1" parent="1">
          <mxGeometry x="100" y="260" width="50" height="30" as="geometry" />
        </mxCell>
        <mxCell id="wsURAHMhbF8bhhn0U9RA-240" value="да" style="text;html=1;align=center;verticalAlign=middle;resizable=0;points=[];autosize=1;strokeColor=none;fillColor=none;fontFamily=Lucida Console;fontSize=12;fontColor=default;labelBackgroundColor=none;" vertex="1" parent="1">
          <mxGeometry x="230" y="330" width="40" height="30" as="geometry" />
        </mxCell>
        <mxCell id="wsURAHMhbF8bhhn0U9RA-241" value="нет" style="text;html=1;align=center;verticalAlign=middle;resizable=0;points=[];autosize=1;strokeColor=none;fillColor=none;fontFamily=Lucida Console;fontSize=12;fontColor=default;labelBackgroundColor=none;" vertex="1" parent="1">
          <mxGeometry x="100" y="390" width="50" height="30" as="geometry" />
        </mxCell>
        <mxCell id="wsURAHMhbF8bhhn0U9RA-242" value="да" style="text;html=1;align=center;verticalAlign=middle;resizable=0;points=[];autosize=1;strokeColor=none;fillColor=none;fontFamily=Lucida Console;fontSize=12;fontColor=default;labelBackgroundColor=none;" vertex="1" parent="1">
          <mxGeometry x="710" y="200" width="40" height="30" as="geometry" />
        </mxCell>
        <mxCell id="wsURAHMhbF8bhhn0U9RA-243" value="нет" style="text;html=1;align=center;verticalAlign=middle;resizable=0;points=[];autosize=1;strokeColor=none;fillColor=none;fontFamily=Lucida Console;fontSize=12;fontColor=default;labelBackgroundColor=none;" vertex="1" parent="1">
          <mxGeometry x="580" y="260" width="50" height="30" as="geometry" />
        </mxCell>
        <mxCell id="wsURAHMhbF8bhhn0U9RA-244" value="да" style="text;html=1;align=center;verticalAlign=middle;resizable=0;points=[];autosize=1;strokeColor=none;fillColor=none;fontFamily=Lucida Console;fontSize=12;fontColor=default;labelBackgroundColor=none;" vertex="1" parent="1">
          <mxGeometry x="710" y="330" width="40" height="30" as="geometry" />
        </mxCell>
        <mxCell id="wsURAHMhbF8bhhn0U9RA-245" value="нет" style="text;html=1;align=center;verticalAlign=middle;resizable=0;points=[];autosize=1;strokeColor=none;fillColor=none;fontFamily=Lucida Console;fontSize=12;fontColor=default;labelBackgroundColor=none;" vertex="1" parent="1">
          <mxGeometry x="580" y="390" width="50" height="30" as="geometry" />
        </mxCell>
        <mxCell id="wsURAHMhbF8bhhn0U9RA-246" value="нет" style="text;html=1;align=center;verticalAlign=middle;resizable=0;points=[];autosize=1;strokeColor=none;fillColor=none;fontFamily=Lucida Console;fontSize=12;fontColor=default;labelBackgroundColor=none;" vertex="1" parent="1">
          <mxGeometry x="225" y="850" width="50" height="30" as="geometry" />
        </mxCell>
        <mxCell id="wsURAHMhbF8bhhn0U9RA-247" value="да" style="text;html=1;align=center;verticalAlign=middle;resizable=0;points=[];autosize=1;strokeColor=none;fillColor=none;fontFamily=Lucida Console;fontSize=12;fontColor=default;labelBackgroundColor=none;" vertex="1" parent="1">
          <mxGeometry x="105" y="910" width="40" height="30" as="geometry" />
        </mxCell>
        <mxCell id="wsURAHMhbF8bhhn0U9RA-248" value="да" style="text;html=1;align=center;verticalAlign=middle;resizable=0;points=[];autosize=1;strokeColor=none;fillColor=none;fontFamily=Lucida Console;fontSize=12;fontColor=default;labelBackgroundColor=none;" vertex="1" parent="1">
          <mxGeometry x="230" y="980" width="40" height="30" as="geometry" />
        </mxCell>
        <mxCell id="wsURAHMhbF8bhhn0U9RA-249" value="нет" style="text;html=1;align=center;verticalAlign=middle;resizable=0;points=[];autosize=1;strokeColor=none;fillColor=none;fontFamily=Lucida Console;fontSize=12;fontColor=default;labelBackgroundColor=none;" vertex="1" parent="1">
          <mxGeometry x="100" y="1040" width="50" height="30" as="geometry" />
        </mxCell>
        <mxCell id="wsURAHMhbF8bhhn0U9RA-250" value="да" style="text;html=1;align=center;verticalAlign=middle;resizable=0;points=[];autosize=1;strokeColor=none;fillColor=none;fontFamily=Lucida Console;fontSize=12;fontColor=default;labelBackgroundColor=none;" vertex="1" parent="1">
          <mxGeometry x="230" y="1110" width="40" height="30" as="geometry" />
        </mxCell>
        <mxCell id="wsURAHMhbF8bhhn0U9RA-251" value="нет" style="text;html=1;align=center;verticalAlign=middle;resizable=0;points=[];autosize=1;strokeColor=none;fillColor=none;fontFamily=Lucida Console;fontSize=12;fontColor=default;labelBackgroundColor=none;" vertex="1" parent="1">
          <mxGeometry x="100" y="1170" width="50" height="30" as="geometry" />
        </mxCell>
        <mxCell id="wsURAHMhbF8bhhn0U9RA-252" value="да" style="text;html=1;align=center;verticalAlign=middle;resizable=0;points=[];autosize=1;strokeColor=none;fillColor=none;fontFamily=Lucida Console;fontSize=12;fontColor=default;labelBackgroundColor=none;" vertex="1" parent="1">
          <mxGeometry x="230" y="1240" width="40" height="30" as="geometry" />
        </mxCell>
        <mxCell id="wsURAHMhbF8bhhn0U9RA-253" value="нет" style="text;html=1;align=center;verticalAlign=middle;resizable=0;points=[];autosize=1;strokeColor=none;fillColor=none;fontFamily=Lucida Console;fontSize=12;fontColor=default;labelBackgroundColor=none;" vertex="1" parent="1">
          <mxGeometry x="100" y="1300" width="50" height="30" as="geometry" />
        </mxCell>
        <mxCell id="wsURAHMhbF8bhhn0U9RA-254" value="да" style="text;html=1;align=center;verticalAlign=middle;resizable=0;points=[];autosize=1;strokeColor=none;fillColor=none;fontFamily=Lucida Console;fontSize=12;fontColor=default;labelBackgroundColor=none;" vertex="1" parent="1">
          <mxGeometry x="710" y="980" width="40" height="30" as="geometry" />
        </mxCell>
        <mxCell id="wsURAHMhbF8bhhn0U9RA-255" value="нет" style="text;html=1;align=center;verticalAlign=middle;resizable=0;points=[];autosize=1;strokeColor=none;fillColor=none;fontFamily=Lucida Console;fontSize=12;fontColor=default;labelBackgroundColor=none;" vertex="1" parent="1">
          <mxGeometry x="580" y="1040" width="50" height="30" as="geometry" />
        </mxCell>
        <mxCell id="wsURAHMhbF8bhhn0U9RA-256" value="да" style="text;html=1;align=center;verticalAlign=middle;resizable=0;points=[];autosize=1;strokeColor=none;fillColor=none;fontFamily=Lucida Console;fontSize=12;fontColor=default;labelBackgroundColor=none;" vertex="1" parent="1">
          <mxGeometry x="710" y="1110" width="40" height="30" as="geometry" />
        </mxCell>
        <mxCell id="wsURAHMhbF8bhhn0U9RA-257" value="нет" style="text;html=1;align=center;verticalAlign=middle;resizable=0;points=[];autosize=1;strokeColor=none;fillColor=none;fontFamily=Lucida Console;fontSize=12;fontColor=default;labelBackgroundColor=none;" vertex="1" parent="1">
          <mxGeometry x="580" y="1170" width="50" height="30" as="geometry" />
        </mxCell>
        <mxCell id="wsURAHMhbF8bhhn0U9RA-258" value="да" style="text;html=1;align=center;verticalAlign=middle;resizable=0;points=[];autosize=1;strokeColor=none;fillColor=none;fontFamily=Lucida Console;fontSize=12;fontColor=default;labelBackgroundColor=none;" vertex="1" parent="1">
          <mxGeometry x="710" y="1240" width="40" height="30" as="geometry" />
        </mxCell>
        <mxCell id="wsURAHMhbF8bhhn0U9RA-259" value="нет" style="text;html=1;align=center;verticalAlign=middle;resizable=0;points=[];autosize=1;strokeColor=none;fillColor=none;fontFamily=Lucida Console;fontSize=12;fontColor=default;labelBackgroundColor=none;" vertex="1" parent="1">
          <mxGeometry x="580" y="1300" width="50" height="30" as="geometry" />
        </mxCell>
        <mxCell id="wsURAHMhbF8bhhn0U9RA-260" value="да" style="text;html=1;align=center;verticalAlign=middle;resizable=0;points=[];autosize=1;strokeColor=none;fillColor=none;fontFamily=Lucida Console;fontSize=12;fontColor=default;labelBackgroundColor=none;" vertex="1" parent="1">
          <mxGeometry x="1190" y="980" width="40" height="30" as="geometry" />
        </mxCell>
        <mxCell id="wsURAHMhbF8bhhn0U9RA-261" value="нет" style="text;html=1;align=center;verticalAlign=middle;resizable=0;points=[];autosize=1;strokeColor=none;fillColor=none;fontFamily=Lucida Console;fontSize=12;fontColor=default;labelBackgroundColor=none;" vertex="1" parent="1">
          <mxGeometry x="1060" y="1040" width="50" height="30" as="geometry" />
        </mxCell>
        <mxCell id="wsURAHMhbF8bhhn0U9RA-262" value="да" style="text;html=1;align=center;verticalAlign=middle;resizable=0;points=[];autosize=1;strokeColor=none;fillColor=none;fontFamily=Lucida Console;fontSize=12;fontColor=default;labelBackgroundColor=none;" vertex="1" parent="1">
          <mxGeometry x="1190" y="1110" width="40" height="30" as="geometry" />
        </mxCell>
        <mxCell id="wsURAHMhbF8bhhn0U9RA-263" value="нет" style="text;html=1;align=center;verticalAlign=middle;resizable=0;points=[];autosize=1;strokeColor=none;fillColor=none;fontFamily=Lucida Console;fontSize=12;fontColor=default;labelBackgroundColor=none;" vertex="1" parent="1">
          <mxGeometry x="1060" y="1170" width="50" height="30" as="geometry" />
        </mxCell>
        <mxCell id="wsURAHMhbF8bhhn0U9RA-264" value="да" style="text;html=1;align=center;verticalAlign=middle;resizable=0;points=[];autosize=1;strokeColor=none;fillColor=none;fontFamily=Lucida Console;fontSize=12;fontColor=default;labelBackgroundColor=none;" vertex="1" parent="1">
          <mxGeometry x="1190" y="1240" width="40" height="30" as="geometry" />
        </mxCell>
        <mxCell id="wsURAHMhbF8bhhn0U9RA-265" value="нет" style="text;html=1;align=center;verticalAlign=middle;resizable=0;points=[];autosize=1;strokeColor=none;fillColor=none;fontFamily=Lucida Console;fontSize=12;fontColor=default;labelBackgroundColor=none;" vertex="1" parent="1">
          <mxGeometry x="1060" y="1300" width="50" height="30" as="geometry" />
        </mxCell>
        <mxCell id="wsURAHMhbF8bhhn0U9RA-266" value="да" style="text;html=1;align=center;verticalAlign=middle;resizable=0;points=[];autosize=1;strokeColor=none;fillColor=none;fontFamily=Lucida Console;fontSize=12;fontColor=default;labelBackgroundColor=none;" vertex="1" parent="1">
          <mxGeometry x="2150" y="1110" width="40" height="30" as="geometry" />
        </mxCell>
        <mxCell id="wsURAHMhbF8bhhn0U9RA-267" value="нет" style="text;html=1;align=center;verticalAlign=middle;resizable=0;points=[];autosize=1;strokeColor=none;fillColor=none;fontFamily=Lucida Console;fontSize=12;fontColor=default;labelBackgroundColor=none;" vertex="1" parent="1">
          <mxGeometry x="2020" y="1170" width="50" height="30" as="geometry" />
        </mxCell>
        <mxCell id="wsURAHMhbF8bhhn0U9RA-268" value="да" style="text;html=1;align=center;verticalAlign=middle;resizable=0;points=[];autosize=1;strokeColor=none;fillColor=none;fontFamily=Lucida Console;fontSize=12;fontColor=default;labelBackgroundColor=none;" vertex="1" parent="1">
          <mxGeometry x="2150" y="1240" width="40" height="30" as="geometry" />
        </mxCell>
        <mxCell id="wsURAHMhbF8bhhn0U9RA-269" value="нет" style="text;html=1;align=center;verticalAlign=middle;resizable=0;points=[];autosize=1;strokeColor=none;fillColor=none;fontFamily=Lucida Console;fontSize=12;fontColor=default;labelBackgroundColor=none;" vertex="1" parent="1">
          <mxGeometry x="2020" y="1300" width="50" height="30" as="geometry" />
        </mxCell>
        <mxCell id="wsURAHMhbF8bhhn0U9RA-270" value="да" style="text;html=1;align=center;verticalAlign=middle;resizable=0;points=[];autosize=1;strokeColor=none;fillColor=none;fontFamily=Lucida Console;fontSize=12;fontColor=default;labelBackgroundColor=none;" vertex="1" parent="1">
          <mxGeometry x="2150" y="1370" width="40" height="30" as="geometry" />
        </mxCell>
        <mxCell id="wsURAHMhbF8bhhn0U9RA-271" value="нет" style="text;html=1;align=center;verticalAlign=middle;resizable=0;points=[];autosize=1;strokeColor=none;fillColor=none;fontFamily=Lucida Console;fontSize=12;fontColor=default;labelBackgroundColor=none;" vertex="1" parent="1">
          <mxGeometry x="2020" y="1430" width="50" height="30" as="geometry" />
        </mxCell>
        <mxCell id="wsURAHMhbF8bhhn0U9RA-272" value="да" style="text;html=1;align=center;verticalAlign=middle;resizable=0;points=[];autosize=1;strokeColor=none;fillColor=none;fontFamily=Lucida Console;fontSize=12;fontColor=default;labelBackgroundColor=none;" vertex="1" parent="1">
          <mxGeometry x="1190" y="720" width="40" height="30" as="geometry" />
        </mxCell>
        <mxCell id="wsURAHMhbF8bhhn0U9RA-273" value="нет" style="text;html=1;align=center;verticalAlign=middle;resizable=0;points=[];autosize=1;strokeColor=none;fillColor=none;fontFamily=Lucida Console;fontSize=12;fontColor=default;labelBackgroundColor=none;" vertex="1" parent="1">
          <mxGeometry x="1060" y="780" width="50" height="30" as="geometry" />
        </mxCell>
        <mxCell id="wsURAHMhbF8bhhn0U9RA-274" value="да" style="text;html=1;align=center;verticalAlign=middle;resizable=0;points=[];autosize=1;strokeColor=none;fillColor=none;fontFamily=Lucida Console;fontSize=12;fontColor=default;labelBackgroundColor=none;" vertex="1" parent="1">
          <mxGeometry x="1190" y="1500" width="40" height="30" as="geometry" />
        </mxCell>
        <mxCell id="wsURAHMhbF8bhhn0U9RA-275" value="нет" style="text;html=1;align=center;verticalAlign=middle;resizable=0;points=[];autosize=1;strokeColor=none;fillColor=none;fontFamily=Lucida Console;fontSize=12;fontColor=default;labelBackgroundColor=none;" vertex="1" parent="1">
          <mxGeometry x="1060" y="1560" width="50" height="30" as="geometry" />
        </mxCell>
        <mxCell id="wsURAHMhbF8bhhn0U9RA-276" value="да" style="text;html=1;align=center;verticalAlign=middle;resizable=0;points=[];autosize=1;strokeColor=none;fillColor=none;fontFamily=Lucida Console;fontSize=12;fontColor=default;labelBackgroundColor=none;" vertex="1" parent="1">
          <mxGeometry x="1090" y="1950" width="40" height="30" as="geometry" />
        </mxCell>
        <mxCell id="wsURAHMhbF8bhhn0U9RA-277" value="нет" style="text;html=1;align=center;verticalAlign=middle;resizable=0;points=[];autosize=1;strokeColor=none;fillColor=none;fontFamily=Lucida Console;fontSize=12;fontColor=default;labelBackgroundColor=none;" vertex="1" parent="1">
          <mxGeometry x="985" y="1878" width="50" height="30" as="geometry" />
        </mxCell>
        <mxCell id="wsURAHMhbF8bhhn0U9RA-278" value="да" style="text;html=1;align=center;verticalAlign=middle;resizable=0;points=[];autosize=1;strokeColor=none;fillColor=none;fontFamily=Lucida Console;fontSize=12;fontColor=default;labelBackgroundColor=none;" vertex="1" parent="1">
          <mxGeometry x="1330" y="1950" width="40" height="30" as="geometry" />
        </mxCell>
        <mxCell id="wsURAHMhbF8bhhn0U9RA-279" value="нет" style="text;html=1;align=center;verticalAlign=middle;resizable=0;points=[];autosize=1;strokeColor=none;fillColor=none;fontFamily=Lucida Console;fontSize=12;fontColor=default;labelBackgroundColor=none;" vertex="1" parent="1">
          <mxGeometry x="1225" y="1878" width="50" height="30" as="geometry" />
        </mxCell>
        <mxCell id="wsURAHMhbF8bhhn0U9RA-280" value="да" style="text;html=1;align=center;verticalAlign=middle;resizable=0;points=[];autosize=1;strokeColor=none;fillColor=none;fontFamily=Lucida Console;fontSize=12;fontColor=default;labelBackgroundColor=none;" vertex="1" parent="1">
          <mxGeometry x="1810" y="1300" width="40" height="30" as="geometry" />
        </mxCell>
        <mxCell id="wsURAHMhbF8bhhn0U9RA-281" value="нет" style="text;html=1;align=center;verticalAlign=middle;resizable=0;points=[];autosize=1;strokeColor=none;fillColor=none;fontFamily=Lucida Console;fontSize=12;fontColor=default;labelBackgroundColor=none;" vertex="1" parent="1">
          <mxGeometry x="1705" y="1228" width="50" height="30" as="geometry" />
        </mxCell>
        <mxCell id="wsURAHMhbF8bhhn0U9RA-282" value="да" style="text;html=1;align=center;verticalAlign=middle;resizable=0;points=[];autosize=1;strokeColor=none;fillColor=none;fontFamily=Lucida Console;fontSize=12;fontColor=default;labelBackgroundColor=none;" vertex="1" parent="1">
          <mxGeometry x="1910" y="720" width="40" height="30" as="geometry" />
        </mxCell>
        <mxCell id="wsURAHMhbF8bhhn0U9RA-283" value="нет" style="text;html=1;align=center;verticalAlign=middle;resizable=0;points=[];autosize=1;strokeColor=none;fillColor=none;fontFamily=Lucida Console;fontSize=12;fontColor=default;labelBackgroundColor=none;" vertex="1" parent="1">
          <mxGeometry x="1780" y="780" width="50" height="30" as="geometry" />
        </mxCell>
        <mxCell id="wsURAHMhbF8bhhn0U9RA-284" value="1" style="text;html=1;align=center;verticalAlign=middle;resizable=0;points=[];autosize=1;strokeColor=none;fillColor=none;fontFamily=Lucida Console;fontSize=12;fontColor=default;labelBackgroundColor=none;" vertex="1" parent="1">
          <mxGeometry x="125" y="8" width="30" height="30" as="geometry" />
        </mxCell>
        <mxCell id="wsURAHMhbF8bhhn0U9RA-285" value="2" style="text;html=1;align=center;verticalAlign=middle;resizable=0;points=[];autosize=1;strokeColor=none;fillColor=none;fontFamily=Lucida Console;fontSize=12;fontColor=default;labelBackgroundColor=none;" vertex="1" parent="1">
          <mxGeometry x="365" y="8" width="30" height="30" as="geometry" />
        </mxCell>
        <mxCell id="wsURAHMhbF8bhhn0U9RA-286" value="3" style="text;html=1;align=center;verticalAlign=middle;resizable=0;points=[];autosize=1;strokeColor=none;fillColor=none;fontFamily=Lucida Console;fontSize=12;fontColor=default;labelBackgroundColor=none;" vertex="1" parent="1">
          <mxGeometry x="605" y="8" width="30" height="30" as="geometry" />
        </mxCell>
        <mxCell id="wsURAHMhbF8bhhn0U9RA-289" value="4" style="text;html=1;align=center;verticalAlign=middle;resizable=0;points=[];autosize=1;strokeColor=none;fillColor=none;fontFamily=Lucida Console;fontSize=12;fontColor=default;labelBackgroundColor=none;" vertex="1" parent="1">
          <mxGeometry x="845" y="10" width="30" height="30" as="geometry" />
        </mxCell>
        <mxCell id="wsURAHMhbF8bhhn0U9RA-290" value="5" style="text;html=1;align=center;verticalAlign=middle;resizable=0;points=[];autosize=1;strokeColor=none;fillColor=none;fontFamily=Lucida Console;fontSize=12;fontColor=default;labelBackgroundColor=none;" vertex="1" parent="1">
          <mxGeometry x="1085" y="8" width="30" height="30" as="geometry" />
        </mxCell>
        <mxCell id="wsURAHMhbF8bhhn0U9RA-291" value="6" style="text;html=1;align=center;verticalAlign=middle;resizable=0;points=[];autosize=1;strokeColor=none;fillColor=none;fontFamily=Lucida Console;fontSize=12;fontColor=default;labelBackgroundColor=none;" vertex="1" parent="1">
          <mxGeometry x="1325" y="8" width="30" height="30" as="geometry" />
        </mxCell>
        <mxCell id="wsURAHMhbF8bhhn0U9RA-292" value="7" style="text;html=1;align=center;verticalAlign=middle;resizable=0;points=[];autosize=1;strokeColor=none;fillColor=none;fontFamily=Lucida Console;fontSize=12;fontColor=default;labelBackgroundColor=none;" vertex="1" parent="1">
          <mxGeometry x="1565" y="8" width="30" height="30" as="geometry" />
        </mxCell>
        <mxCell id="wsURAHMhbF8bhhn0U9RA-293" value="8" style="text;html=1;align=center;verticalAlign=middle;resizable=0;points=[];autosize=1;strokeColor=none;fillColor=none;fontFamily=Lucida Console;fontSize=12;fontColor=default;labelBackgroundColor=none;" vertex="1" parent="1">
          <mxGeometry x="1805" y="8" width="30" height="30" as="geometry" />
        </mxCell>
        <mxCell id="wsURAHMhbF8bhhn0U9RA-294" value="9" style="text;html=1;align=center;verticalAlign=middle;resizable=0;points=[];autosize=1;strokeColor=none;fillColor=none;fontFamily=Lucida Console;fontSize=12;fontColor=default;labelBackgroundColor=none;" vertex="1" parent="1">
          <mxGeometry x="2045" y="8" width="30" height="30" as="geometry" />
        </mxCell>
        <mxCell id="wsURAHMhbF8bhhn0U9RA-295" value="10" style="text;html=1;align=center;verticalAlign=middle;resizable=0;points=[];autosize=1;strokeColor=none;fillColor=none;fontFamily=Lucida Console;fontSize=12;fontColor=default;labelBackgroundColor=none;" vertex="1" parent="1">
          <mxGeometry x="2280" y="8" width="40" height="30" as="geometry" />
        </mxCell>
        <mxCell id="wsURAHMhbF8bhhn0U9RA-296" value="11" style="text;html=1;align=center;verticalAlign=middle;resizable=0;points=[];autosize=1;strokeColor=none;fillColor=none;fontFamily=Lucida Console;fontSize=12;fontColor=default;labelBackgroundColor=none;" vertex="1" parent="1">
          <mxGeometry x="2520" y="8" width="40" height="30" as="geometry" />
        </mxCell>
        <mxCell id="wsURAHMhbF8bhhn0U9RA-297" value="A" style="text;html=1;align=center;verticalAlign=middle;resizable=0;points=[];autosize=1;strokeColor=none;fillColor=none;fontFamily=Lucida Console;fontSize=12;fontColor=default;labelBackgroundColor=none;" vertex="1" parent="1">
          <mxGeometry x="10" y="68" width="30" height="30" as="geometry" />
        </mxCell>
        <mxCell id="wsURAHMhbF8bhhn0U9RA-298" value="B" style="text;html=1;align=center;verticalAlign=middle;resizable=0;points=[];autosize=1;strokeColor=none;fillColor=none;fontFamily=Lucida Console;fontSize=12;fontColor=default;labelBackgroundColor=none;" vertex="1" parent="1">
          <mxGeometry x="10" y="205" width="30" height="30" as="geometry" />
        </mxCell>
        <mxCell id="wsURAHMhbF8bhhn0U9RA-299" value="C" style="text;html=1;align=center;verticalAlign=middle;resizable=0;points=[];autosize=1;strokeColor=none;fillColor=none;fontFamily=Lucida Console;fontSize=12;fontColor=default;labelBackgroundColor=none;" vertex="1" parent="1">
          <mxGeometry x="10" y="335" width="30" height="30" as="geometry" />
        </mxCell>
        <mxCell id="wsURAHMhbF8bhhn0U9RA-300" value="D" style="text;html=1;align=center;verticalAlign=middle;resizable=0;points=[];autosize=1;strokeColor=none;fillColor=none;fontFamily=Lucida Console;fontSize=12;fontColor=default;labelBackgroundColor=none;" vertex="1" parent="1">
          <mxGeometry x="10" y="465" width="30" height="30" as="geometry" />
        </mxCell>
        <mxCell id="wsURAHMhbF8bhhn0U9RA-301" value="E" style="text;html=1;align=center;verticalAlign=middle;resizable=0;points=[];autosize=1;strokeColor=none;fillColor=none;fontFamily=Lucida Console;fontSize=12;fontColor=default;labelBackgroundColor=none;" vertex="1" parent="1">
          <mxGeometry x="10" y="595" width="30" height="30" as="geometry" />
        </mxCell>
        <mxCell id="wsURAHMhbF8bhhn0U9RA-302" value="F" style="text;html=1;align=center;verticalAlign=middle;resizable=0;points=[];autosize=1;strokeColor=none;fillColor=none;fontFamily=Lucida Console;fontSize=12;fontColor=default;labelBackgroundColor=none;" vertex="1" parent="1">
          <mxGeometry x="10" y="725" width="30" height="30" as="geometry" />
        </mxCell>
        <mxCell id="wsURAHMhbF8bhhn0U9RA-303" value="G" style="text;html=1;align=center;verticalAlign=middle;resizable=0;points=[];autosize=1;strokeColor=none;fillColor=none;fontFamily=Lucida Console;fontSize=12;fontColor=default;labelBackgroundColor=none;" vertex="1" parent="1">
          <mxGeometry x="10" y="855" width="30" height="30" as="geometry" />
        </mxCell>
        <mxCell id="wsURAHMhbF8bhhn0U9RA-304" value="H" style="text;html=1;align=center;verticalAlign=middle;resizable=0;points=[];autosize=1;strokeColor=none;fillColor=none;fontFamily=Lucida Console;fontSize=12;fontColor=default;labelBackgroundColor=none;" vertex="1" parent="1">
          <mxGeometry x="10" y="985" width="30" height="30" as="geometry" />
        </mxCell>
        <mxCell id="wsURAHMhbF8bhhn0U9RA-305" value="I" style="text;html=1;align=center;verticalAlign=middle;resizable=0;points=[];autosize=1;strokeColor=none;fillColor=none;fontFamily=Lucida Console;fontSize=12;fontColor=default;labelBackgroundColor=none;" vertex="1" parent="1">
          <mxGeometry x="10" y="1115" width="30" height="30" as="geometry" />
        </mxCell>
        <mxCell id="wsURAHMhbF8bhhn0U9RA-306" value="J" style="text;html=1;align=center;verticalAlign=middle;resizable=0;points=[];autosize=1;strokeColor=none;fillColor=none;fontFamily=Lucida Console;fontSize=12;fontColor=default;labelBackgroundColor=none;" vertex="1" parent="1">
          <mxGeometry x="10" y="1245" width="30" height="30" as="geometry" />
        </mxCell>
        <mxCell id="wsURAHMhbF8bhhn0U9RA-307" value="K" style="text;html=1;align=center;verticalAlign=middle;resizable=0;points=[];autosize=1;strokeColor=none;fillColor=none;fontFamily=Lucida Console;fontSize=12;fontColor=default;labelBackgroundColor=none;" vertex="1" parent="1">
          <mxGeometry x="10" y="1375" width="30" height="30" as="geometry" />
        </mxCell>
        <mxCell id="wsURAHMhbF8bhhn0U9RA-308" value="L" style="text;html=1;align=center;verticalAlign=middle;resizable=0;points=[];autosize=1;strokeColor=none;fillColor=none;fontFamily=Lucida Console;fontSize=12;fontColor=default;labelBackgroundColor=none;" vertex="1" parent="1">
          <mxGeometry x="10" y="1505" width="30" height="30" as="geometry" />
        </mxCell>
        <mxCell id="wsURAHMhbF8bhhn0U9RA-309" value="M" style="text;html=1;align=center;verticalAlign=middle;resizable=0;points=[];autosize=1;strokeColor=none;fillColor=none;fontFamily=Lucida Console;fontSize=12;fontColor=default;labelBackgroundColor=none;" vertex="1" parent="1">
          <mxGeometry x="10" y="1635" width="30" height="30" as="geometry" />
        </mxCell>
        <mxCell id="wsURAHMhbF8bhhn0U9RA-310" value="N" style="text;html=1;align=center;verticalAlign=middle;resizable=0;points=[];autosize=1;strokeColor=none;fillColor=none;fontFamily=Lucida Console;fontSize=12;fontColor=default;labelBackgroundColor=none;" vertex="1" parent="1">
          <mxGeometry x="10" y="1765" width="30" height="30" as="geometry" />
        </mxCell>
        <mxCell id="wsURAHMhbF8bhhn0U9RA-311" value="O" style="text;html=1;align=center;verticalAlign=middle;resizable=0;points=[];autosize=1;strokeColor=none;fillColor=none;fontFamily=Lucida Console;fontSize=12;fontColor=default;labelBackgroundColor=none;" vertex="1" parent="1">
          <mxGeometry x="10" y="1895" width="30" height="30" as="geometry" />
        </mxCell>
        <mxCell id="wsURAHMhbF8bhhn0U9RA-312" value="P" style="text;html=1;align=center;verticalAlign=middle;resizable=0;points=[];autosize=1;strokeColor=none;fillColor=none;fontFamily=Lucida Console;fontSize=12;fontColor=default;labelBackgroundColor=none;" vertex="1" parent="1">
          <mxGeometry x="10" y="2025" width="30" height="30" as="geometry" />
        </mxCell>
        <mxCell id="wsURAHMhbF8bhhn0U9RA-313" value="Q" style="text;html=1;align=center;verticalAlign=middle;resizable=0;points=[];autosize=1;strokeColor=none;fillColor=none;fontFamily=Lucida Console;fontSize=12;fontColor=default;labelBackgroundColor=none;" vertex="1" parent="1">
          <mxGeometry x="10" y="2155" width="30" height="30" as="geometry" />
        </mxCell>
        <mxCell id="wsURAHMhbF8bhhn0U9RA-314" value="Лабораторная работа №5 Молчанов Степан Б24-516" style="text;html=1;align=center;verticalAlign=middle;resizable=0;points=[];autosize=1;strokeColor=none;fillColor=none;fontFamily=Lucida Console;fontSize=12;fontColor=default;labelBackgroundColor=none;" vertex="1" parent="1">
          <mxGeometry x="2940" y="2309" width="360" height="30" as="geometry" />
        </mxCell>
      </root>
    </mxGraphModel>
  </diagram>
</mxfile>
